<svg width="258" height="272" viewBox="0 0 258 272" fill="none" xmlns="http://www.w3.org/2000/svg">
<path d="M98.7874 141.444C90.2978 138.601 82.1871 135.991 72.7436 132.685C59.0941 127.907 49.6548 123.034 46.2766 122.041C42.8908 121.045 42.3662 130.663 42.1163 139.717C41.9939 144.153 59.5169 145.921 73.8978 148.028C82.7262 149.322 87.4001 151.787 90.9328 153.401C92.8253 154.265 94.8129 154.751 96.4522 154.522C99.3124 154.123 99.1655 150.984 98.4692 149.062C96.9408 144.843 88.383 145.26 83.0749 143.268C78.3982 141.514 73.9441 140.276 66.5208 137.486C63.2583 136.26 60.9879 135.102 58.4412 134.297C56.972 133.832 55.0408 133.473 53.7444 134.611C52.448 135.749 51.8186 138.452 52.9917 140.169C57.0399 146.093 79.7439 146.928 90.8299 148.242C95.476 148.793 97.4329 147.223 98.862 147.282C100.337 147.344 100.475 145.363 100.131 143.77C99.449 140.614 89.9933 142.067 86.503 142.15C82.1411 142.253 74.6374 141.094 58.8505 137.675C52.0421 136.2 50.2801 131.438 48.4819 128.014C47.5498 126.24 48.0841 124.717 48.7168 123.843C48.9751 123.485 50.0182 123.781 51.1512 125.112C55.3372 132.014 57.6202 134.528 62.3225 137.912C63.591 138.698 64.8782 139.311 67.0294 140.122" stroke="#402C2C" stroke-width="18" stroke-linecap="round"/>
<g filter="url(#filter0_d_116_187)">
<path d="M100.978 169.246C86.4342 166.091 77.0132 164.381 64.1128 163.675C54.5022 163.149 38.8767 163.132 29.9656 162.917C19.427 162.663 16.574 162.07 14.7575 162.427C8.55006 163.648 14.909 172.791 14.5898 179.836C14.5059 181.686 14.5651 183.049 15.3306 184.06C17.9814 187.562 25.2889 184.039 30.9579 182.658C35.2419 181.614 40.4151 181.086 49.9298 179.864C63.5158 178.118 69.9047 177.19 78.7264 175.984C83.2147 175.371 90.2635 175.362 96.0718 175.355C100.32 175.349 103.468 175.858 105.722 176.097C106.662 176.196 106.999 175.622 107.27 175.089C108.635 172.409 104.275 168.787 102.286 167.427C99.1626 165.291 92.5419 168.408 87.1479 169.78C85.0898 170.304 71.389 171.561 51.5786 172.914C41.6183 173.594 36.8835 172.882 28.7589 171.876C23.6985 171.249 21.3634 173.73 22.2628 173.515C35.5027 170.353 42.4506 168.7 43.5698 168.267C44.6993 167.83 39.524 167.721 38.5541 167.513C28.1286 165.279 64.7425 168.47 66.7905 168.998C69.1781 169.613 58.2124 168.228 51.3766 168.349C47.6126 168.416 44.0786 168.036 37.1748 167.965C33.1877 167.925 29.7654 167.461 27.6474 167.252C24.5818 166.95 24.541 173.706 23.7196 179.689C23.4734 181.482 25.1348 180.98 26.5458 180.522C31.7148 178.844 35.6142 178.183 38.1288 177.377C41.6982 176.233 30.5455 174.047 24.666 171.42C22.2 170.213 20.7209 169.047 19.6559 168.057C19.0242 167.661 18.2075 167.484 17.366 167.302" stroke="#402C2C" stroke-width="18" stroke-linecap="round" shape-rendering="crispEdges"/>
</g>
<g filter="url(#filter1_d_116_187)">
<path d="M115.755 176.5C109.962 181.614 103.053 188.915 95.3441 193.624C84.9271 199.987 73.8451 203.995 67.432 206.804C51.0653 213.972 48.5189 219.598 48.5673 220.618C48.7461 224.383 58.5677 232.045 64.0232 237.292C65.5336 238.744 66.6504 239.724 67.9149 239.839C69.3647 239.97 71.059 238.023 75.2018 234.469C79.3446 230.914 85.5276 225.242 92.2562 219.999C98.9849 214.756 106.072 210.115 111.133 207.195C118.559 202.91 122.576 201.768 123.68 200.747C126.359 198.271 124.387 195.253 123.113 189.006C121.992 183.515 121.979 179.545 122.031 178.709C122.318 174.086 117.504 191.356 112.58 197.094C109.623 200.54 103.635 204.131 97.4974 207.468C78.7511 217.66 75.9453 218.457 72.1799 219.164C66.5918 220.212 59.4762 220.962 57.9964 221.734C57.2782 222.109 57.2963 222.843 57.4367 223.468C57.5771 224.093 58.0105 224.688 58.8774 225.301C59.7443 225.914 61.0314 226.527 62.5297 226.941C64.0281 227.354 65.6985 227.55 72.2227 222.366C78.7468 217.183 90.074 206.614 96.175 200.643C104.572 192.425 106.034 190.928 107.547 189.994C109.02 189.084 101.928 194.01 87.3184 203.469C70.2542 214.517 70.1705 217.205 67.5471 219.166C64.9827 221.083 66.8377 224.072 64.9647 226.533C64.1314 227.627 61.6482 229.014 60.174 230.971C59.6869 231.618 61.4832 232.029 63.8298 231.871C69.698 231.473 74.206 229.572 76.3596 227.767C77.3602 226.929 77.3873 225.885 77.1555 225.653C76.5008 224.996 75.1342 226.889 74.1265 227.513C73.6343 227.818 72.6485 227.701 71.4475 227.276C65.943 225.328 63.3075 223.155 60.3 219.304C59.0515 217.706 59.7985 215.82 60.5995 214.223C60.8916 213.64 61.9581 213.915 62.7687 214.175C66.0344 215.219 68.4315 218.346 71.7028 221.082C73.4333 222.529 75.4816 224.095 77.4331 225.614C79.0878 226.902 81.3962 227.24 82.98 227.25C84.4396 226.565 85.5365 225.613 86.3023 224.185C86.6849 223.175 87.0551 221.586 87.4366 219.948" stroke="#402C2C" stroke-width="18" stroke-linecap="round" shape-rendering="crispEdges"/>
</g>
<g filter="url(#filter2_d_116_187)">
<path d="M122.884 183.106C125.047 191.156 127.906 196.148 130.977 199.78C132.55 201.639 135.439 208.383 140.981 217.424C145.174 224.263 145.86 227.045 148.174 230.75C149.894 233.505 151.883 235.942 152.25 238.718C152.776 242.694 154.701 246.168 155.014 247.928C155.393 250.055 163.414 245.892 179.951 240.472C184.129 239.102 186.123 238.997 187.528 238.545C188.786 238.141 188.924 236.907 189.7 236.066C191.618 233.99 182.843 230.867 178.671 228.947C170.927 225.384 164.179 219.238 157.137 212.319C149.716 205.026 144.236 198.223 136.826 190.368C131.89 185.135 122.214 178.761 117.809 175.181C117.083 174.591 116.295 174.258 116.265 174.333C114.433 178.825 129.807 186.794 132.799 189.464C139.077 195.068 145.509 202.507 150.08 207.625C157.25 215.653 161.586 221.519 163.911 223.962C165.469 225.598 166.949 227.07 167.686 228.239C169.119 230.513 165.098 233.9 161.602 236.446C159.38 238.064 158.754 239.967 158.717 240.718C158.609 242.956 171.269 240.521 179.121 239.254C181.131 238.93 173.068 234.657 159.523 228.442C146.99 222.692 141.495 216.169 137.516 211.612C135.113 208.859 133.166 204.97 132.06 202.76C130.721 200.083 140.279 208.401 154.264 222.142C159.933 227.712 160.698 229.089 161.291 229.056C168.856 228.63 154.846 214.734 151.589 206.892C151.122 205.768 150.995 205.073 151.297 206.214C152.393 210.355 154.001 215.644 155.757 220.48C157.803 226.118 157.303 232.538 156.806 237.743C156.633 239.554 158.447 239.906 159.866 240.047C166.673 239.342 173.478 237.438 176.663 236.191C177.619 235.806 178.856 235.406 180.131 234.995" stroke="#402C2C" stroke-width="18" stroke-linecap="round" shape-rendering="crispEdges"/>
</g>
<g filter="url(#filter3_d_116_187)">
<path d="M140.729 180.905C141.274 181.023 151.865 187.161 168.773 196.982C181.693 204.486 185.842 206.712 187.549 207.421C189.491 208.228 194.041 206.152 201.146 202.236C211.196 196.695 214.832 191.418 214.478 190.499C213.12 186.968 205.555 186.708 200.855 185.178C192.703 182.523 183.502 178.544 169.412 173.977C159.099 170.635 152.922 168.368 148.469 167.653C145.914 167.242 143.381 170.823 140.197 175.187C138.918 176.941 138.82 177.94 140.623 178.179C152.167 179.712 156.232 177.527 161.747 178.63C163.196 178.92 164.055 179.882 164.683 180.944C165.311 182.006 165.559 183.396 165.631 184.351C165.704 185.305 165.593 185.782 164.385 185.444C163.176 185.106 160.874 183.939 159.682 182.751C158.489 181.564 158.476 180.392 159.342 179.727C161.13 178.353 165.147 178.95 167.328 179.504C168.249 179.738 168.234 180.617 167.389 181.195C166.544 181.773 164.725 182.213 162.681 182.284C160.637 182.354 158.422 182.04 157.973 181.361C157.525 180.682 158.91 179.646 162.111 179.485C169.968 179.091 178.728 182.559 184.695 186.039C189.99 189.128 191.995 192.688 193.122 195.288C193.666 196.541 193.161 197.652 192.328 198.157C191.496 198.662 190.098 198.526 188.579 198.199C187.061 197.872 185.464 197.359 184.307 196.688C183.151 196.017 182.482 195.204 183.139 194.168C186.868 188.289 198.186 189.659 200.694 190.034C201.814 190.201 202.584 190.608 202.875 191.258C203.604 192.89 201.638 194.78 198.981 196.309C193.39 199.526 185.045 196.59 182.902 195.875C182.009 195.577 181.959 194.919 182.414 194.175C184.989 189.964 194.474 190.711 196.866 190.974C197.856 191.083 198.255 191.855 198.287 192.37C198.318 192.886 197.935 193.304 196.983 193.689C194.731 194.601 190.368 194.871 185.751 194.881C182.453 194.888 178.555 193.497 174.02 191.926C162.779 188.033 156.158 178.027 153.651 175.12C153.152 174.542 158.225 177.6 165.305 183C184.645 197.749 189.579 200.605 189.809 201.497C189.9 201.852 188.751 201.776 187.959 201.44C184.052 199.782 182.728 196.604 169.375 184.707C166.57 182.208 165.641 181.926 165.729 182.11C167.191 185.182 173.173 189.106 178.064 192.872C180.189 194.508 184.981 196.384 187.478 197.027C189.976 197.67 190.471 196.775 190.391 195.908C190.311 195.04 189.643 194.227 188.265 193.334C177.045 186.058 156.411 184.311 155.261 183.052C154.817 182.448 154.656 181.912 154.721 181C154.786 180.088 155.082 178.816 155.387 177.506" stroke="#402C2C" stroke-width="18" stroke-linecap="round" shape-rendering="crispEdges"/>
</g>
<g filter="url(#filter4_d_116_187)">
<path d="M139.541 137.634C139.107 137.039 138.674 136.444 139.484 136.612C146.791 138.128 151.134 142.335 154.902 144.167C160.162 146.724 162.817 149.251 165.877 151.018C167.425 151.912 170.608 152.975 174.128 153.99C175.3 154.327 174.816 154.89 174 155.305C170.631 157.019 166.416 156.276 156.988 154.074C147.87 151.945 146.068 148.158 142.904 146.802C138.802 145.042 141.507 140.429 140.417 138.839C138.915 136.648 139.264 143.808 140.256 145.036C143.099 148.551 150.975 148.039 152.689 149.334C153.716 150.11 154.835 151.224 154.934 151.509C151.882 150.432 147.642 148.844 144.022 147.047C142.432 146.357 141.343 146.121 139.508 145.217" stroke="#402C2C" stroke-width="18" stroke-linecap="round" shape-rendering="crispEdges"/>
</g>
<g filter="url(#filter5_d_116_187)">
<path d="M122.289 167.657C111.714 157.226 103.721 149.95 98.8307 144.968C84.9318 130.808 98.84 116.073 102.294 107.956C104.851 101.949 108.653 97.6713 109.906 96.3646C115.067 90.9849 117.149 109.092 121.978 119.067C136.105 148.246 134.341 154.905 133.655 161.865C132.888 169.635 122.781 174.988 115.14 178.275C110.516 180.264 109.606 169.186 107.616 164.44C105.166 158.597 101.67 152.659 98.7974 146.16C98.3565 144.677 98.1606 143.265 98.505 140.403C98.8494 137.541 99.7401 133.272 100.658 128.873" stroke="#FFD21D" stroke-width="18" stroke-linecap="round" shape-rendering="crispEdges"/>
</g>
<g filter="url(#filter6_d_116_187)">
<path d="M103.12 124.194C109.138 128.544 111.68 135.306 113.692 143.504C114.028 145.495 114.223 146.907 114.422 148.34C114.621 149.773 114.817 151.185 115.019 152.639" stroke="#FFD21D" stroke-width="18" stroke-linecap="round"/>
</g>
<g filter="url(#filter7_d_116_187)">
<path d="M105.857 183.189C101.175 177.35 99.7341 175.57 98.2591 173.572C95.3225 169.594 94.5161 167.924 91.9247 162.949C90.4504 160.118 89.9457 158.61 89.399 157.224C88.8339 155.793 88.0956 154.415 87.6838 152.742C87.2715 151.067 86.2585 147.283 85.8215 143.891C85.5606 141.865 85.5562 138.979 85.6279 135.022C85.6572 133.399 85.8988 132.264 86.1954 129.753C87.3974 119.581 89.4588 118.095 90.3873 116.17C91.3799 114.112 92.3845 112.039 93.7623 109.789C96.5557 105.227 97.2039 100.564 98.8071 98.3003C99.9768 96.6488 100.768 95.0607 102.305 92.7881C103.379 91.201 104.242 88.5991 105.492 86.941C106.437 85.687 107.745 84.8733 108.11 83.8401C108.271 83.3838 108.7 83.168 109.28 83.2843C112.344 83.8984 112.547 86.5004 114.923 89.8815C116.97 92.794 119.99 98.328 121.875 101.465C124.145 105.244 125.815 107.77 127.808 111.616C130.988 117.75 131.254 119.494 133.357 123.524C134.625 125.956 135.623 130.429 136.952 133.541C137.89 135.739 138.688 138.293 139.94 140.616C140.854 142.309 142.272 150.722 143.367 156.143C144.216 160.349 141.819 166.13 140.968 168.392C140.044 170.849 138.457 172.101 137.225 173.643C135.09 176.316 131.606 178.816 128.366 180.945C126.443 182.208 123.795 182.9 121.051 183.709C117.64 184.8 115.401 185.384 113.445 186.039C112.965 186.152 112.493 186.262 110.7 186.104" stroke="#E96E16" stroke-width="7" stroke-linecap="round"/>
</g>
<g filter="url(#filter8_d_116_187)">
<path d="M78.4121 118.773C78.6415 117.874 78.8666 116.974 79.0897 116.075C79.7054 113.591 80.3058 111.11 80.9006 108.633C81.4618 106.234 82.5372 104.167 83.8106 101.954C85.3138 99.1964 87.0061 96.7275 88.9595 94.2822C89.4569 93.6514 89.9593 93.0257 90.4689 92.3941C92.1792 90.2866 93.7316 88.0149 95.0918 85.6684C96.6845 83.0791 97.4421 80.1221 98.3382 77.4323L98.3327 77.4453C98.6878 76.4374 99.1587 75.3064 99.36 74.144C99.5056 73.3574 99.5795 72.5795 99.6368 71.8034C99.7042 70.8673 99.7404 69.9343 99.7732 69.0001C99.5434 69.8994 99.3199 70.8004 99.0778 71.6895C98.8762 72.4253 98.6639 73.1584 98.4039 73.8463C98.0294 74.8689 97.4737 75.7435 96.9172 76.7807L96.9117 76.7937C95.5738 79.4152 94.5664 82.026 92.936 84.2236C91.4275 86.3824 89.8554 88.4425 88.1687 90.4396C87.6376 91.0719 87.1169 91.7072 86.6025 92.3596C84.5943 94.8631 82.7895 97.7309 81.467 100.687C80.3778 102.95 79.3453 105.585 79.1038 108.268C78.8441 110.829 78.6558 113.398 78.5287 115.973C78.4825 116.906 78.4445 117.839 78.4121 118.773Z" fill="#C83712"/>
</g>
<g filter="url(#filter9_d_116_187)">
<path d="M120.176 78.8101C120.508 79.5763 120.857 80.3337 121.224 81.0829C124.049 86.9535 128.165 92.1027 131.718 97.2854C132.258 98.0747 132.76 98.8959 133.232 99.7401C135.544 103.839 136.953 108.363 138.757 113.074C139.754 115.379 140.677 117.761 141.714 120.106C142.065 120.863 142.38 121.655 142.881 122.326C142.881 122.326 142.881 122.326 142.881 122.326C142.56 121.567 142.435 120.74 142.257 119.932C141.752 117.436 141.271 114.926 140.594 112.433C139.545 107.795 138.374 102.748 135.851 98.2773C135.333 97.3502 134.762 96.446 134.13 95.5788C130.247 90.2716 125.68 85.8441 121.706 80.7785C121.19 80.1308 120.68 79.4753 120.176 78.8101Z" fill="#C83712"/>
</g>
<defs>
<filter id="filter0_d_116_187" x="0" y="141.346" width="147.559" height="75.189" filterUnits="userSpaceOnUse" color-interpolation-filters="sRGB">
<feFlood flood-opacity="0" result="BackgroundImageFix"/>
<feColorMatrix in="SourceAlpha" type="matrix" values="0 0 0 0 0 0 0 0 0 0 0 0 0 0 0 0 0 0 127 0" result="hardAlpha"/>
<feOffset dx="14" dy="5"/>
<feGaussianBlur stdDeviation="8.5"/>
<feComposite in2="hardAlpha" operator="out"/>
<feColorMatrix type="matrix" values="0 0 0 0 0 0 0 0 0 0 0 0 0 0 0 0 0 0 0.25 0"/>
<feBlend mode="normal" in2="BackgroundImageFix" result="effect1_dropShadow_116_187"/>
<feBlend mode="normal" in="SourceGraphic" in2="effect1_dropShadow_116_187" result="shape"/>
</filter>
<filter id="filter1_d_116_187" x="39.5375" y="157.529" width="122.507" height="109.287" filterUnits="userSpaceOnUse" color-interpolation-filters="sRGB">
<feFlood flood-opacity="0" result="BackgroundImageFix"/>
<feColorMatrix in="SourceAlpha" type="matrix" values="0 0 0 0 0 0 0 0 0 0 0 0 0 0 0 0 0 0 127 0" result="hardAlpha"/>
<feOffset dx="14" dy="4"/>
<feGaussianBlur stdDeviation="7"/>
<feComposite in2="hardAlpha" operator="out"/>
<feColorMatrix type="matrix" values="0 0 0 0 0 0 0 0 0 0 0 0 0 0 0 0 0 0 0.25 0"/>
<feBlend mode="normal" in2="BackgroundImageFix" result="effect1_dropShadow_116_187"/>
<feBlend mode="normal" in="SourceGraphic" in2="effect1_dropShadow_116_187" result="shape"/>
</filter>
<filter id="filter2_d_116_187" x="107.083" y="151.352" width="123.918" height="120.113" filterUnits="userSpaceOnUse" color-interpolation-filters="sRGB">
<feFlood flood-opacity="0" result="BackgroundImageFix"/>
<feColorMatrix in="SourceAlpha" type="matrix" values="0 0 0 0 0 0 0 0 0 0 0 0 0 0 0 0 0 0 127 0" result="hardAlpha"/>
<feOffset dx="18"/>
<feGaussianBlur stdDeviation="7"/>
<feComposite in2="hardAlpha" operator="out"/>
<feColorMatrix type="matrix" values="0 0 0 0 0 0 0 0 0 0 0 0 0 0 0 0 0 0 0.25 0"/>
<feBlend mode="normal" in2="BackgroundImageFix" result="effect1_dropShadow_116_187"/>
<feBlend mode="normal" in="SourceGraphic" in2="effect1_dropShadow_116_187" result="shape"/>
</filter>
<filter id="filter3_d_116_187" x="130.222" y="158.645" width="127.309" height="81.9194" filterUnits="userSpaceOnUse" color-interpolation-filters="sRGB">
<feFlood flood-opacity="0" result="BackgroundImageFix"/>
<feColorMatrix in="SourceAlpha" type="matrix" values="0 0 0 0 0 0 0 0 0 0 0 0 0 0 0 0 0 0 127 0" result="hardAlpha"/>
<feOffset dx="23" dy="13"/>
<feGaussianBlur stdDeviation="5.5"/>
<feComposite in2="hardAlpha" operator="out"/>
<feColorMatrix type="matrix" values="0 0 0 0 0 0 0 0 0 0 0 0 0 0 0 0 0 0 0.25 0"/>
<feBlend mode="normal" in2="BackgroundImageFix" result="effect1_dropShadow_116_187"/>
<feBlend mode="normal" in="SourceGraphic" in2="effect1_dropShadow_116_187" result="shape"/>
</filter>
<filter id="filter4_d_116_187" x="130" y="118.612" width="119.856" height="92.6411" filterUnits="userSpaceOnUse" color-interpolation-filters="sRGB">
<feFlood flood-opacity="0" result="BackgroundImageFix"/>
<feColorMatrix in="SourceAlpha" type="matrix" values="0 0 0 0 0 0 0 0 0 0 0 0 0 0 0 0 0 0 127 0" result="hardAlpha"/>
<feOffset dx="39" dy="18"/>
<feGaussianBlur stdDeviation="13.5"/>
<feComposite in2="hardAlpha" operator="out"/>
<feColorMatrix type="matrix" values="0 0 0 0 0 0 0 0 0 0 0 0 0 0 0 0 0 0 0.25 0"/>
<feBlend mode="normal" in2="BackgroundImageFix" result="effect1_dropShadow_116_187"/>
<feBlend mode="normal" in="SourceGraphic" in2="effect1_dropShadow_116_187" result="shape"/>
</filter>
<filter id="filter5_d_116_187" x="66.776" y="17.3862" width="119.336" height="170.125" filterUnits="userSpaceOnUse" color-interpolation-filters="sRGB">
<feFlood flood-opacity="0" result="BackgroundImageFix"/>
<feColorMatrix in="SourceAlpha" type="matrix" values="0 0 0 0 0 0 0 0 0 0 0 0 0 0 0 0 0 0 127 0" result="hardAlpha"/>
<feOffset dx="13" dy="-39"/>
<feGaussianBlur stdDeviation="15"/>
<feComposite in2="hardAlpha" operator="out"/>
<feColorMatrix type="matrix" values="0 0 0 0 0 0 0 0 0 0 0 0 0 0 0 0 0 0 0.25 0"/>
<feBlend mode="normal" in2="BackgroundImageFix" result="effect1_dropShadow_116_187"/>
<feBlend mode="normal" in="SourceGraphic" in2="effect1_dropShadow_116_187" result="shape"/>
</filter>
<filter id="filter6_d_116_187" x="77.1193" y="46.1934" width="89.9008" height="115.447" filterUnits="userSpaceOnUse" color-interpolation-filters="sRGB">
<feFlood flood-opacity="0" result="BackgroundImageFix"/>
<feColorMatrix in="SourceAlpha" type="matrix" values="0 0 0 0 0 0 0 0 0 0 0 0 0 0 0 0 0 0 127 0" result="hardAlpha"/>
<feOffset dx="13" dy="-39"/>
<feGaussianBlur stdDeviation="15"/>
<feComposite in2="hardAlpha" operator="out"/>
<feColorMatrix type="matrix" values="0 0 0 0 0 0 0 0 0 0 0 0 0 0 0 0 0 0 0.25 0"/>
<feBlend mode="normal" in2="BackgroundImageFix" result="effect1_dropShadow_116_187"/>
<feBlend mode="normal" in="SourceGraphic" in2="effect1_dropShadow_116_187" result="shape"/>
</filter>
<filter id="filter7_d_116_187" x="65.088" y="10.7534" width="124.958" height="178.93" filterUnits="userSpaceOnUse" color-interpolation-filters="sRGB">
<feFlood flood-opacity="0" result="BackgroundImageFix"/>
<feColorMatrix in="SourceAlpha" type="matrix" values="0 0 0 0 0 0 0 0 0 0 0 0 0 0 0 0 0 0 127 0" result="hardAlpha"/>
<feOffset dx="13" dy="-39"/>
<feGaussianBlur stdDeviation="15"/>
<feComposite in2="hardAlpha" operator="out"/>
<feColorMatrix type="matrix" values="0 0 0 0 0 0 0 0 0 0 0 0 0 0 0 0 0 0 0.25 0"/>
<feBlend mode="normal" in2="BackgroundImageFix" result="effect1_dropShadow_116_187"/>
<feBlend mode="normal" in="SourceGraphic" in2="effect1_dropShadow_116_187" result="shape"/>
</filter>
<filter id="filter8_d_116_187" x="61.4121" y="0" width="81.3611" height="118.773" filterUnits="userSpaceOnUse" color-interpolation-filters="sRGB">
<feFlood flood-opacity="0" result="BackgroundImageFix"/>
<feColorMatrix in="SourceAlpha" type="matrix" values="0 0 0 0 0 0 0 0 0 0 0 0 0 0 0 0 0 0 127 0" result="hardAlpha"/>
<feOffset dx="13" dy="-39"/>
<feGaussianBlur stdDeviation="15"/>
<feComposite in2="hardAlpha" operator="out"/>
<feColorMatrix type="matrix" values="0 0 0 0 0 0 0 0 0 0 0 0 0 0 0 0 0 0 0.25 0"/>
<feBlend mode="normal" in2="BackgroundImageFix" result="effect1_dropShadow_116_187"/>
<feBlend mode="normal" in="SourceGraphic" in2="effect1_dropShadow_116_187" result="shape"/>
</filter>
<filter id="filter9_d_116_187" x="103.176" y="9.81006" width="82.7058" height="112.516" filterUnits="userSpaceOnUse" color-interpolation-filters="sRGB">
<feFlood flood-opacity="0" result="BackgroundImageFix"/>
<feColorMatrix in="SourceAlpha" type="matrix" values="0 0 0 0 0 0 0 0 0 0 0 0 0 0 0 0 0 0 127 0" result="hardAlpha"/>
<feOffset dx="13" dy="-39"/>
<feGaussianBlur stdDeviation="15"/>
<feComposite in2="hardAlpha" operator="out"/>
<feColorMatrix type="matrix" values="0 0 0 0 0 0 0 0 0 0 0 0 0 0 0 0 0 0 0.25 0"/>
<feBlend mode="normal" in2="BackgroundImageFix" result="effect1_dropShadow_116_187"/>
<feBlend mode="normal" in="SourceGraphic" in2="effect1_dropShadow_116_187" result="shape"/>
</filter>
</defs>
</svg>
