<svg width="840" height="465" viewBox="0 0 840 465" fill="none" xmlns="http://www.w3.org/2000/svg" xmlns:xlink="http://www.w3.org/1999/xlink">
<path d="M420.582 457.88H513.135L622.003 443.062L816.116 426.956V412.237V358.563V322.954L601.643 339.337L420.582 353.449V457.88Z" fill="#884224" fill-opacity="0.87"/>
<g filter="url(#filter0_f_108_1197)">
<path d="M734.597 366.274C692.224 370.117 649.85 373.959 612.496 375.939C575.141 377.919 544.088 377.919 526.798 378.067C509.507 378.214 506.92 378.51 504.94 379.254C495.4 382.836 493.805 397.895 493.633 405.809C493.597 407.477 494.119 408.358 494.932 408.962C496.737 410.304 500.96 411.349 511.674 413.584C519.675 415.254 533.385 415.524 561.57 415.389C589.755 415.255 632.129 414.073 655.09 413.316C680.324 412.484 684.912 411.959 689.636 411.663C699.406 411.052 708.407 407.507 715.44 403.919C718.696 402.258 704.574 407.175 687.7 408.219C674.406 409.041 651.419 408.967 638.456 409.267C623.22 409.619 617.985 410.167 606.458 411.054C583.506 412.82 567.329 415.542 563.584 415.69C548.11 416.3 527.17 415.846 520.936 413.907C515.697 412.277 509.841 409.289 506.876 404.958C504.201 401.052 503.273 396.462 504.244 391.096C504.702 388.563 507.155 386.913 509.125 385.703C512.761 383.472 527.004 382.702 545.946 381.511C558.329 380.732 565.966 378.815 577.532 378.071C594.82 376.96 610.721 377.328 618.715 376.136C624.514 375.272 634.863 374.336 652.776 373.745C673.999 373.044 690.116 370.753 697.463 370.605C703.278 370.488 707.779 368.674 712.038 367.917C713.018 367.743 713.994 367.474 714.979 367.322C715.964 367.169 716.934 367.169 714.847 367.761C712.759 368.352 707.583 369.534 684.701 370.882C661.819 372.231 621.386 373.709 593.764 374.174C566.143 374.64 552.557 374.049 544.588 374.04C529.483 374.023 513.507 386.805 504.597 393.134C502.583 394.564 502.293 400.86 502.778 408.77C503.006 412.485 506.528 413.446 508.973 414.637C511.171 415.708 513.712 416.438 521.662 416.585C538.995 416.908 551.94 417.629 564.256 418.077C574.947 418.466 594.686 418.229 607.923 417.933C627.325 417.5 638.167 416.438 646.16 416.29C657.161 416.086 666.925 414.951 672.664 414.498C673.823 414.407 674.786 414.055 675.933 413.902C677.08 413.75 678.374 413.75 649.12 414.341C619.867 414.933 560.026 416.115 528.552 416.133C497.079 416.151 495.785 414.968 495.118 413.177C494.452 409.02 495.099 404.515 496.241 400.936C496.736 399.427 497.059 398.54 497.392 397.626" stroke="#874C31" stroke-width="8" stroke-linecap="round"/>
</g>
<g filter="url(#filter1_f_108_1197)">
<path d="M493.79 371.055C492.398 372.726 486.809 377.901 479.218 384.579C476.14 387.287 474.956 388.202 473.762 389.535C472.812 390.596 472.838 392.277 473.188 393.962C473.961 397.678 478.309 402.953 485.885 409.206C488.661 411.498 491.246 412.389 499.06 413.926C505.591 415.211 517.453 416.856 523.896 417.788C530.34 418.72 531.036 418.72 528.471 418.372C525.906 418.024 520.06 417.328 514.682 416.413C509.304 415.497 504.571 414.384 499.21 412.001C493.849 409.617 488.002 405.998 482.137 401.489C476.272 396.98 470.565 391.69 472.218 387.017C473.872 382.343 483.059 378.446 490.019 375.115C496.979 371.785 501.433 369.14 504.284 366.873C507.136 364.606 508.249 362.796 508.057 361.795C507.865 360.793 506.334 360.654 504.571 362.6C502.808 364.547 500.859 368.584 499.02 374.561C497.181 380.538 495.511 388.333 494.372 392.836C493.233 397.338 492.676 398.313 492.18 398.606C491.685 398.899 491.267 398.482 491.191 397.362C490.776 391.239 493.785 387.24 494.209 385.06C494.315 384.516 487.939 390.404 480.967 396.82C479.618 398.06 481.928 394.188 485.446 390.096C488.964 386.004 493.418 381.55 495.574 379.673C497.729 377.796 497.451 378.631 496.542 379.827C495.633 381.023 494.102 382.554 493.243 382.856C492.385 383.157 492.246 382.183 491.826 382.307C485.924 384.057 489.285 396.343 491.311 399.855C492.334 401.627 495.148 401.974 497.898 401.915C503.778 401.789 508.815 398.49 511.906 395.542C513.147 394.358 513.328 393.428 512.984 393.346C512.64 393.264 511.666 393.96 512.765 395.71C513.864 397.461 517.065 400.245 524.143 399.591C531.221 398.937 542.079 394.761 548.437 392.123C554.796 389.484 556.327 388.51 554.611 389.4C552.894 390.29 547.883 393.074 545.997 394.856C544.112 396.638 545.504 397.334 548.309 397.623C555.255 398.339 561.402 396.516 563.726 394.481C564.52 393.785 563.405 392.863 560.191 393.409C556.977 393.956 551.409 395.765 547.149 398.159C539.454 402.482 536.54 408.019 535.764 409.782C535.36 410.699 537.65 403.995 538.289 397.604C538.551 394.978 536.84 393.58 534.454 393.768C532.069 393.956 528.589 395.765 525.265 398.298C518.438 403.5 515.167 409.28 514.393 412.65C514.071 414.052 514.315 414.907 514.943 415.546C516.372 416.999 518.529 417.033 519.792 416.824C520.389 416.725 520.777 416.198 520.992 415.008C521.207 413.819 521.207 411.87 520.929 410.518C520.651 409.166 520.094 408.47 519.111 407.903C518.128 407.335 516.736 406.918 515.741 406.911C514.745 406.905 514.188 407.323 514.806 408.721C516.617 412.818 522.578 417.29 528.616 421.154C531.113 422.752 532.706 423.208 533.564 423.286C534.423 423.364 534.562 422.947 534.634 422.453C534.705 421.96 534.705 421.403 534.775 421.464C534.844 421.525 534.984 422.221 536.099 423.206C537.215 424.191 539.303 425.444 543.302 425.88C547.301 426.317 553.147 425.899 557.063 424.501C563.517 422.197 564.375 419.69 567.803 419.29C568.762 419.177 568.729 417.893 567.478 417.533C563.729 416.452 558.352 419.125 554.416 422.004C552.905 423.109 552.708 423.908 554.514 424.615C556.319 425.321 560.216 426.017 565.356 425.193C570.496 424.368 576.76 422.002 581.239 419.739C585.719 417.476 588.225 415.388 589.237 414.382C590.249 413.376 589.693 413.515 589.336 413.795C588.98 414.076 588.84 414.494 589.743 414.5C592.624 414.52 598.222 411.431 604.888 408.335C609.807 406.051 615.942 408.04 621.141 407.335C625.624 406.728 631.68 410.976 636.14 411.13C637.233 411.167 639.854 411.541 645.038 412.945C656.874 413.941 660.958 413.38 662.712 412.958C663.493 412.815 664.049 412.815 664.623 412.815" stroke="#874C31" stroke-width="8" stroke-linecap="round"/>
</g>
<path d="M173.363 156.019L222.38 28.4624L313.731 66.8963L454.865 70.7728L600.426 28.4624L663.824 156.019L714.987 241.846L769.487 294.717L819.537 326.376H797.499L405.389 346.197V443.302L25.833 449.01V350.118L87.6618 294.717L138.271 225.089L173.363 156.019Z" fill="#D2B16B"/>
<path d="M218.984 90.8235L253.075 184.691L339.233 328.287L380.716 382.535L343.24 420.366L339.233 445.148H104.16L101.078 420.366L61.6128 382.535L104.16 328.287L185.204 184.691L218.984 90.8235Z" fill="#D8A435"/>
<path d="M218.985 18.3933C219.966 21.4776 233.724 33.3761 261.198 48.4187C276.458 56.7742 296.189 59.9516 323.94 64.4119C351.691 68.8721 387.321 72.8206 429.049 69.1513C470.776 65.4821 517.521 54.0755 546.832 46.0058C576.143 37.9361 586.603 33.5489 592.482 31.0695C598.361 28.5901 599.342 28.1514 601.343 27.6994" stroke="#E3C075" stroke-width="8" stroke-linecap="round"/>
<path d="M601.343 27.7869C601.416 28.2706 601.489 28.7543 612.728 52.7909C623.967 76.8275 646.371 124.402 666.624 161.448C686.877 198.494 704.3 223.569 722.8 244.944C741.3 266.319 760.349 283.234 776.474 295.943C792.6 308.651 805.226 316.641 814.468 322.076C823.709 327.51 829.183 330.148 835.983 334.189" stroke="#E3C075" stroke-width="8" stroke-linecap="round"/>
<line x1="14.2193" y1="459.937" x2="475.007" y2="460.93" stroke="#E3C075" stroke-width="8"/>
<line x1="474.603" y1="460.95" x2="815.722" y2="427.181" stroke="#E3C075" stroke-width="8"/>
<g filter="url(#filter2_d_108_1197)">
<path d="M105.035 441.434C102.026 433.16 99.0179 424.885 93.4029 416.829C87.7879 408.773 79.6576 401.186 73.2606 396.128C66.8637 391.069 62.4463 388.77 56.9705 386.183" stroke="#C9A24C" stroke-width="8" stroke-linecap="round"/>
</g>
<g filter="url(#filter3_d_108_1197)">
<path d="M337.08 443.09C339.927 434.494 342.774 425.898 348.159 417.576C353.544 409.254 361.38 401.466 367.555 396.292C373.73 391.117 378.006 388.791 383.308 386.183" stroke="#C9A24C" stroke-width="8" stroke-linecap="round"/>
</g>
<line x1="421.27" y1="354.249" x2="835.79" y2="334.21" stroke="#E3C075" stroke-width="8"/>
<line x1="411.034" y1="352.411" x2="825.308" y2="329.462" stroke="#E3C075" stroke-width="8"/>
<line x1="403.794" y1="345.685" x2="818.068" y2="322.736" stroke="#E3C075" stroke-width="8"/>
<line x1="425.462" y1="356.44" x2="424.581" y2="457.914" stroke="#E3C075" stroke-width="8"/>
<line x1="812.811" y1="327.694" x2="813.636" y2="431.13" stroke="#E3C075" stroke-width="8"/>
<line x1="408.015" y1="347.911" x2="407.996" y2="445.505" stroke="#E3C075" stroke-width="8"/>
<line x1="33.9996" y1="338.158" x2="35.0247" y2="447.886" stroke="#E3C075" stroke-width="8"/>
<line x1="33.9996" y1="338.158" x2="35.0247" y2="447.886" stroke="#E3C075" stroke-width="8"/>
<path d="M220.139 18.9958C220.139 19.4869 220.139 19.9779 228.275 45.5182C236.41 71.0585 252.68 121.633 268.349 161.435C284.018 201.238 298.594 228.734 314.915 252.72C331.237 276.705 348.863 296.346 364.044 311.374C379.226 326.402 391.429 336.223 400.426 343C409.424 349.778 414.848 353.215 421.463 358.244" stroke="#E3C075" stroke-width="8" stroke-linecap="round"/>
<path d="M4.82153 359.87C5.80468 360.539 11.5821 361.552 15.0128 361.177C15.7392 360.966 16.3534 360.797 16.9252 360.629C17.1945 360.544 17.4214 360.461 17.8843 360.375" stroke="#E3C075" stroke-width="8" stroke-linecap="round"/>
<line x1="18.2107" y1="350.216" x2="18.2107" y2="459.738" stroke="#E3C075" stroke-width="8"/>
<path d="M220.925 139.214L261.216 288.93L334.069 443.576H296.788H217.789H178.733H127.251H108.167L178.733 288.93L220.925 139.214Z" fill="#804C19"/>
<path d="M119.105 443.4L318.282 416.885L333.479 443.4L123.308 445.506L119.105 443.4Z" fill="#573410"/>
<path d="M136.537 388.474L297.371 377.28L320.147 417.406L107.435 445.453L136.537 388.474Z" fill="#673C11"/>
<line x1="222.985" y1="139.224" x2="222.252" y2="443.215" stroke="#402C2C" stroke-width="8"/>
<path d="M220.139 70.5979C220.139 71.709 220.139 72.8201 219.717 91.7254C219.295 110.631 218.451 147.296 207.746 193.036C197.042 238.776 176.502 292.478 158.605 334.217C140.709 375.956 126.078 404.103 117.556 420.085C109.034 436.066 107.064 439.029 105.035 443.204" stroke="#E3C075" stroke-width="8" stroke-linecap="round"/>
<path d="M33.4697 443.923L412.019 446.917" stroke="#E3C075" stroke-width="8"/>
<path d="M220.139 70.5979C220.139 71.7086 220.139 72.8194 220.564 91.7189C220.988 110.618 221.836 147.273 232.597 192.998C243.358 238.724 264.006 292.41 281.997 334.136C299.988 375.862 314.695 404 323.262 419.977C331.829 435.954 333.809 438.916 335.849 443.09" stroke="#E3C075" stroke-width="8" stroke-linecap="round"/>
<use xlink:href="#stroke0_108_1197" transform="translate(8.38386 357.462) scale(0.025266) rotate(-58.1423)"/>
<use xlink:href="#stroke0_108_1197" transform="translate(15.3831 362.143) scale(0.0257516) rotate(-152.13)"/>
<use xlink:href="#stroke0_108_1197" transform="translate(15.8344 352.683) scale(0.0194824) rotate(77.3179)"/>
<use xlink:href="#stroke0_108_1197" transform="translate(4.67505 359.993) scale(0.0399467) rotate(-64.6753)"/>
<g filter="url(#filter4_d_108_1197)">
<path d="M220.14 70.598C219.916 71.6432 219.693 72.6884 215.558 90.3447C211.423 108.001 203.383 142.237 185.749 182.016C168.114 221.795 141.129 266.081 118.632 299.914C96.1358 333.747 78.9458 355.786 69.0165 368.234C59.0871 380.682 56.9393 382.871 54.5006 386.183" stroke="#C9A24C" stroke-width="8" stroke-linecap="round"/>
</g>
<g filter="url(#filter5_d_108_1197)">
<path d="M220.139 75.9302C220.36 76.9607 220.58 77.9912 224.665 95.396C228.751 112.801 236.694 146.549 254.297 185.685C271.9 224.822 298.922 268.325 321.464 301.543C344.007 334.762 361.251 356.377 371.213 368.583C381.175 380.79 383.333 382.933 385.778 386.183" stroke="#C9A24C" stroke-width="8" stroke-linecap="round"/>
</g>
<path d="M218.985 23.4028C218.985 23.8875 218.985 24.3721 210.298 49.5806C201.611 74.7892 184.236 124.707 167.504 163.992C150.771 203.277 135.207 230.417 117.778 254.091C100.348 277.765 81.5263 297.15 65.3147 311.983C49.1031 326.816 36.0724 336.509 26.4639 343.198C16.8555 349.888 11.064 353.28 4.00024 358.244" stroke="#E3C075" stroke-width="8" stroke-linecap="round"/>
<path d="M420.582 356.608L421.758 445.224L410.391 445.224L408.995 356.791L420.582 356.608Z" fill="#884224" fill-opacity="0.87"/>
<rect x="22.1331" y="445.148" width="399.33" height="12.7319" fill="#884224" fill-opacity="0.87"/>
<path d="M31.8235 343.637L33.4282 445.292L21.8416 445.474L19.6548 351.319L31.8235 343.637Z" fill="#884224" fill-opacity="0.87"/>
<g filter="url(#filter6_f_108_1197)">
<path d="M297.839 110.514C321.538 150.013 345.237 189.511 358.198 211.928C374.214 243.875 377.223 250.68 380.854 257.543C381.43 259.07 381.806 260.575 382.194 262.125" stroke="#C9A24C" stroke-width="8" stroke-linecap="round"/>
</g>
<g filter="url(#filter7_f_108_1197)">
<path d="M373.074 87.7156L428.931 182.33" stroke="#C9A24C" stroke-width="8" stroke-linecap="round"/>
</g>
<g filter="url(#filter8_f_108_1197)">
<path d="M589.661 83.1558C622.765 134.316 655.868 185.476 674.803 215.969C693.737 246.462 697.499 254.738 701.374 263.265" stroke="#C9A24C" stroke-width="8" stroke-linecap="round"/>
</g>
<defs>
<filter id="filter0_f_108_1197" x="469.632" y="342.273" width="288.966" height="100.007" filterUnits="userSpaceOnUse" color-interpolation-filters="sRGB">
<feFlood flood-opacity="0" result="BackgroundImageFix"/>
<feBlend mode="normal" in="SourceGraphic" in2="BackgroundImageFix" result="shape"/>
<feGaussianBlur stdDeviation="10" result="effect1_foregroundBlur_108_1197"/>
</filter>
<filter id="filter1_f_108_1197" x="447.922" y="337.078" width="240.701" height="112.967" filterUnits="userSpaceOnUse" color-interpolation-filters="sRGB">
<feFlood flood-opacity="0" result="BackgroundImageFix"/>
<feBlend mode="normal" in="SourceGraphic" in2="BackgroundImageFix" result="shape"/>
<feGaussianBlur stdDeviation="10" result="effect1_foregroundBlur_108_1197"/>
</filter>
<filter id="filter2_d_108_1197" x="53.0413" y="382.111" width="64.9229" height="71.395" filterUnits="userSpaceOnUse" color-interpolation-filters="sRGB">
<feFlood flood-opacity="0" result="BackgroundImageFix"/>
<feColorMatrix in="SourceAlpha" type="matrix" values="0 0 0 0 0 0 0 0 0 0 0 0 0 0 0 0 0 0 127 0" result="hardAlpha"/>
<feOffset dx="5" dy="4"/>
<feGaussianBlur stdDeviation="2"/>
<feComposite in2="hardAlpha" operator="out"/>
<feColorMatrix type="matrix" values="0 0 0 0 0 0 0 0 0 0 0 0 0 0 0 0 0 0 0.25 0"/>
<feBlend mode="normal" in2="BackgroundImageFix" result="effect1_dropShadow_108_1197"/>
<feBlend mode="normal" in="SourceGraphic" in2="effect1_dropShadow_108_1197" result="shape"/>
</filter>
<filter id="filter3_d_108_1197" x="333.151" y="382.112" width="63.0864" height="73.0498" filterUnits="userSpaceOnUse" color-interpolation-filters="sRGB">
<feFlood flood-opacity="0" result="BackgroundImageFix"/>
<feColorMatrix in="SourceAlpha" type="matrix" values="0 0 0 0 0 0 0 0 0 0 0 0 0 0 0 0 0 0 127 0" result="hardAlpha"/>
<feOffset dx="5" dy="4"/>
<feGaussianBlur stdDeviation="2"/>
<feComposite in2="hardAlpha" operator="out"/>
<feColorMatrix type="matrix" values="0 0 0 0 0 0 0 0 0 0 0 0 0 0 0 0 0 0 0.25 0"/>
<feBlend mode="normal" in2="BackgroundImageFix" result="effect1_dropShadow_108_1197"/>
<feBlend mode="normal" in="SourceGraphic" in2="effect1_dropShadow_108_1197" result="shape"/>
</filter>
<filter id="filter4_d_108_1197" x="50.675" y="66.4294" width="182.291" height="331.921" filterUnits="userSpaceOnUse" color-interpolation-filters="sRGB">
<feFlood flood-opacity="0" result="BackgroundImageFix"/>
<feColorMatrix in="SourceAlpha" type="matrix" values="0 0 0 0 0 0 0 0 0 0 0 0 0 0 0 0 0 0 127 0" result="hardAlpha"/>
<feOffset dx="5" dy="4"/>
<feGaussianBlur stdDeviation="2"/>
<feComposite in2="hardAlpha" operator="out"/>
<feColorMatrix type="matrix" values="0 0 0 0 0 0 0 0 0 0 0 0 0 0 0 0 0 0 0.25 0"/>
<feBlend mode="normal" in2="BackgroundImageFix" result="effect1_dropShadow_108_1197"/>
<feBlend mode="normal" in="SourceGraphic" in2="effect1_dropShadow_108_1197" result="shape"/>
</filter>
<filter id="filter5_d_108_1197" x="216.313" y="67.7617" width="182.291" height="326.588" filterUnits="userSpaceOnUse" color-interpolation-filters="sRGB">
<feFlood flood-opacity="0" result="BackgroundImageFix"/>
<feColorMatrix in="SourceAlpha" type="matrix" values="0 0 0 0 0 0 0 0 0 0 0 0 0 0 0 0 0 0 127 0" result="hardAlpha"/>
<feOffset dx="5"/>
<feGaussianBlur stdDeviation="2"/>
<feComposite in2="hardAlpha" operator="out"/>
<feColorMatrix type="matrix" values="0 0 0 0 0 0 0 0 0 0 0 0 0 0 0 0 0 0 0.25 0"/>
<feBlend mode="normal" in2="BackgroundImageFix" result="effect1_dropShadow_108_1197"/>
<feBlend mode="normal" in="SourceGraphic" in2="effect1_dropShadow_108_1197" result="shape"/>
</filter>
<filter id="filter6_f_108_1197" x="268.838" y="81.5137" width="142.356" height="209.613" filterUnits="userSpaceOnUse" color-interpolation-filters="sRGB">
<feFlood flood-opacity="0" result="BackgroundImageFix"/>
<feBlend mode="normal" in="SourceGraphic" in2="BackgroundImageFix" result="shape"/>
<feGaussianBlur stdDeviation="12.5" result="effect1_foregroundBlur_108_1197"/>
</filter>
<filter id="filter7_f_108_1197" x="344.073" y="58.7148" width="113.858" height="152.616" filterUnits="userSpaceOnUse" color-interpolation-filters="sRGB">
<feFlood flood-opacity="0" result="BackgroundImageFix"/>
<feBlend mode="normal" in="SourceGraphic" in2="BackgroundImageFix" result="shape"/>
<feGaussianBlur stdDeviation="12.5" result="effect1_foregroundBlur_108_1197"/>
</filter>
<filter id="filter8_f_108_1197" x="560.661" y="54.1553" width="169.715" height="238.111" filterUnits="userSpaceOnUse" color-interpolation-filters="sRGB">
<feFlood flood-opacity="0" result="BackgroundImageFix"/>
<feBlend mode="normal" in="SourceGraphic" in2="BackgroundImageFix" result="shape"/>
<feGaussianBlur stdDeviation="12.5" result="effect1_foregroundBlur_108_1197"/>
</filter>
<g id="stroke0_108_1197" data-figma-scatter-ref="stroke0_108_1197_ref" data-figma-scatter="f0.51_w0.06_aj180_sj0.65_r0_s14853726082963793296_sw9">
<path d="M215.823 333.963C215.823 333.23 216.123 332.93 216.49 333.296C216.856 333.663 216.856 334.263 216.49 334.63C216.123 334.996 215.823 334.696 215.823 333.963ZM143.424 3.97701C148.056 3.32404 151.523 8.80284 148.726 12.3588C146.775 14.8388 146.175 17.9633 147.648 17.9633C148.553 17.9667 158.823 30.3033 158.823 31.3862C158.823 32.4623 154.479 36.4974 152.507 37.2544C150.609 37.9824 151.073 39.9631 153.14 39.9633C153.801 39.9633 154.92 40.8881 155.626 42.02C156.91 44.0739 156.912 44.0744 158.617 42.0766C159.555 40.9766 161.223 39.938 162.323 39.77C163.423 39.601 164.653 39.0132 165.057 38.4633C165.472 37.8983 165.798 38.2253 165.807 39.2133C165.825 41.3531 166.254 41.3818 169.215 39.4419C170.838 38.3789 171.405 37.2303 171.099 35.6313C170.05 30.1434 175.963 30.1199 185.501 35.5737C190.79 38.5976 191.028 38.5792 193.164 34.9633C196.187 29.8454 203.13 33.2701 201.316 38.9838C200.801 40.6068 201.133 41.2309 202.733 41.6499C203.883 41.9499 204.823 42.5946 204.823 43.0805C204.824 43.5654 205.723 43.9633 206.823 43.9633C209.228 43.9633 209.333 43.3299 207.269 41.2661C205.332 39.3301 205.758 35.0191 208.025 33.5991C210.469 32.0694 211.11 33.2632 210.001 37.2797C209.157 40.3355 209.276 40.8478 210.928 41.2797C211.97 41.5527 212.823 42.4936 212.823 43.3696C212.824 45.4861 216.745 45.4516 218.302 43.3227C219.936 41.0879 223.264 42.9574 223.298 46.1294C223.32 48.1552 223.883 48.504 227.573 48.77C231.476 49.053 231.823 48.8831 231.823 46.6811C231.823 45.0832 232.672 43.8975 234.37 43.1245C240.164 40.4845 243.457 43.0685 242.282 49.3315C241.655 52.6722 241.655 52.6725 249.407 53.3745C262.73 54.5825 271.108 62.5852 260.323 63.8012C258.673 63.9882 256.79 64.5797 256.14 65.1167C255.368 65.7556 253.636 65.7276 251.14 65.0346C246.476 63.7398 245.823 63.7172 245.823 64.8549C245.823 65.7449 249.37 66.9616 253.515 67.4936C257.329 67.9826 258.042 68.9656 257.379 72.8286C255.795 82.0527 255.841 81.9633 252.685 81.9633C250.953 81.9633 249.964 81.5443 250.323 80.9633C250.663 80.4133 250.517 79.9633 249.999 79.9633C249.48 79.9633 248.821 79.0632 248.533 77.9633C248.217 76.7553 247.169 75.9633 245.885 75.9633C244.716 75.9632 243.46 75.1762 243.092 74.2133C242.404 72.4103 242.246 72.1833 238.753 67.9633C236.684 65.4633 236.684 65.4633 237.262 68.1733C237.705 70.252 237.359 71.1408 235.772 71.9897C232.719 73.6237 233.414 78.5898 236.633 78.1401C237.903 77.9621 239.585 78.3504 240.37 79.0024C241.211 79.7003 242.9 79.9101 244.485 79.5122C246.95 78.8932 247.055 78.9823 245.748 80.5922C244.844 81.7052 244.78 82.0721 245.573 81.5962C246.78 80.8713 247.26 82.2792 247.055 85.9321C247.01 86.7401 248.281 89.181 249.881 91.3569C252.292 94.6349 252.689 95.9524 252.194 99.0434C251.695 102.167 251.943 102.958 253.722 103.911C255.46 104.841 255.656 105.407 254.789 107.026C254.207 108.114 254.046 109.515 254.431 110.14C255.79 112.339 247.804 110.139 243.089 107.016C234.391 101.254 232.358 104.203 234.165 119.963C234.386 121.888 234.142 123.998 233.622 124.653C231.331 127.54 233.14 131.457 236.823 131.585C238.748 131.652 240.773 131.816 241.323 131.95C241.873 132.084 243.093 132.116 244.034 132.022C246.328 131.792 249.862 133.758 249.563 135.098C249.134 137.018 257.14 136.437 263.279 134.102C266.554 132.856 270.042 132.048 271.029 132.307C272.126 132.594 272.823 132.23 272.823 131.37C272.823 130.597 271.923 129.963 270.823 129.963C268.355 129.963 268.291 128.842 270.596 125.996C272.37 123.806 272.37 123.805 274.251 125.884C277.35 129.307 282.41 126.734 280.041 122.94C279.048 121.351 279.46 120.899 283.362 119.295C285.811 118.288 287.817 117.126 287.819 116.713C287.821 116.301 288.262 115.963 288.798 115.963C290.086 115.963 288.981 121.818 287.134 124.78C286.042 126.531 285.967 127.431 286.825 128.466C288.108 130.011 286.599 133.834 284.133 135.288C283.329 135.762 282.984 136.896 283.321 137.957C283.727 139.236 283.296 139.996 281.916 140.434C280.723 140.812 280.144 141.636 280.471 142.488C281.07 144.051 279.303 146.204 276.573 147.238C275.611 147.602 274.823 148.857 274.823 150.027C274.823 152.253 271.493 157.622 268.86 159.642C267.494 160.689 267.518 160.896 269.075 161.499C270.259 161.958 271.465 161.413 272.792 159.821C274.896 157.295 275.458 157.908 273.83 160.952C272.986 162.526 273.289 162.906 275.83 163.464C279.699 164.314 279.894 168.296 276.323 173.558C272.999 178.456 273.141 179.594 277.811 185.463C279.999 188.213 283.258 192.592 285.055 195.195C287.985 199.439 291.823 201.575 291.823 198.963C291.823 198.413 292.858 197.963 294.123 197.963C295.388 197.963 296.869 197.517 297.413 196.973C298.033 196.353 299.563 196.316 301.501 196.872C303.893 197.558 304.97 197.388 306.229 196.128C311.032 191.326 313.154 199.168 308.775 205.533C305.051 210.945 307.295 210.388 312.57 204.592C314.356 202.629 316.421 201.256 317.16 201.54C317.898 201.822 319.08 201.359 319.785 200.509C321.719 198.179 324.72 198.643 326.009 201.472C327.592 204.947 325.832 207.908 318.196 214.612C312.035 220.021 312.035 220.021 314.929 222.915C319.416 227.402 318.437 230.291 311.993 231.58C309.623 232.053 308.701 231.81 308.231 230.585C307.343 228.271 305.535 228.576 302.783 231.505C300.746 233.674 300.577 234.339 301.632 236.028C303.496 239.014 301.66 241.738 298.126 241.228C293.529 240.565 288.418 246.501 289.907 250.775C290.518 252.528 291.537 253.977 292.171 253.994C292.805 254.011 292.532 254.484 291.565 255.048C290.598 255.611 289.399 255.819 288.9 255.511C288.402 255.203 287.764 255.415 287.483 255.982C287.203 256.549 287.108 256.439 287.273 255.738C287.438 255.037 288.155 254.601 288.867 254.769C289.918 255.018 289.921 254.787 288.886 253.54C288.066 252.551 286.49 252.15 284.467 252.416C282.738 252.642 279.973 252.894 278.323 252.974C276.673 253.055 275.886 253.348 276.573 253.625C277.261 253.904 277.823 254.712 277.823 255.424C277.823 256.136 278.498 257.278 279.323 257.963C284.43 262.201 279.156 267.527 267.467 269.94C261.662 271.138 261.616 271.176 262.217 274.181C262.55 275.849 262.823 278.291 262.823 279.609C262.823 281.174 263.663 282.389 265.244 283.109C266.671 283.759 267.448 284.778 267.136 285.59C265.821 289.017 267.765 292.135 270.801 291.468C274.766 290.597 278.421 292.537 276.707 294.602C276.023 295.427 274.625 295.883 273.602 295.615C272.138 295.233 271.87 295.538 272.348 297.046C272.893 298.763 272.429 298.963 267.889 298.963C262.743 298.963 261.095 297.073 265.249 295.935C268.036 295.172 268.4 292.927 265.844 292.258C264.392 291.879 264.055 291.437 264.845 290.949C266.469 289.946 265.098 283.964 263.244 283.963C262.462 283.963 261.823 283.571 261.823 283.091C261.823 282.611 259.972 281.923 257.709 281.561C255.433 281.197 252.864 280.005 251.959 278.892C250.396 276.971 250.314 277.128 250.111 282.423C249.912 287.635 250.039 287.963 252.254 287.963C257.861 287.963 255.961 295.527 250.118 296.465C248.031 296.8 244.838 297.728 243.022 298.527C240.536 299.621 239.219 299.71 237.687 298.89C235.32 297.624 234.327 298.227 235.168 300.42C235.494 301.269 236.844 301.963 238.169 301.963C242.073 301.963 243.244 304.249 241.284 308.04C239.619 311.258 239.618 311.258 228.221 310.647C216.823 310.036 216.823 310.036 216.823 313.065C216.823 321.686 206.244 322.014 203.987 313.463C202.962 309.577 196.547 308.889 196.016 312.607C195.599 315.535 190.787 316.541 190.083 313.848C189.539 311.771 188.717 311.487 187.273 312.878C186.751 313.382 185.198 313.944 183.823 314.128C182.113 314.357 181.221 315.181 181 316.737C180.739 318.581 180.17 318.937 178 318.615C176.528 318.397 175.418 317.764 175.533 317.21C175.649 316.655 174.861 315.403 173.783 314.427C171.902 312.724 171.821 312.729 171.781 314.558C171.757 315.606 170.365 317.588 168.686 318.963C167.007 320.338 164.438 322.475 162.978 323.712C158.062 327.876 154.556 326.427 153.301 319.713C152.916 317.652 152.42 315.964 152.199 315.963C151.978 315.963 148.55 316.863 144.58 317.963C130.056 321.988 115.58 315.43 128.81 310.818C130.467 310.24 131.823 309.373 131.823 308.89C131.823 308.407 130.668 308.452 129.257 308.988C127.134 309.795 126.098 309.512 123.257 307.345C120.118 304.951 118.274 301.888 120.978 303.558C121.694 304.001 121.861 303.833 121.417 303.115C120.368 301.418 116.504 303.691 117.229 305.579C118.04 307.692 114.948 308.516 113.522 306.566C111.691 304.062 106.546 306.574 107.286 309.61C108.627 315.112 101.84 317.769 99.8455 312.524C98.8953 310.026 94.4089 310.708 90.3231 313.97C88.4581 315.459 83.5201 315.529 83.0311 314.074C82.7723 313.306 83.018 312.966 83.5799 313.313C84.1398 313.659 84.5764 313.384 84.5526 312.703C84.3916 308.249 84.9971 307.097 88.0731 306.006C91.7409 304.706 90.1749 302.466 84.8231 301.359C83.4482 301.075 81.5171 300.405 80.5321 299.87C79.5471 299.334 78.3755 299.121 77.9295 299.397C77.4824 299.673 76.2634 299.261 75.2196 298.481C73.4269 297.14 73.453 297.096 75.7069 297.665C77.4798 298.113 77.9663 297.907 77.6033 296.865C77.3352 296.094 76.3745 295.595 75.4686 295.757C74.5637 295.918 73.8231 295.644 73.8231 295.147C73.8225 293.779 67.1263 286.964 65.7821 286.963C64.5191 286.963 65.3358 292.016 66.7508 292.954C68.0246 293.798 67.6327 300.104 66.3377 299.607C65.6809 299.355 65.2149 300.076 65.2537 301.283C65.3377 303.874 62.3307 304.729 61.4256 302.372C61.0686 301.443 61.4731 299.62 62.3231 298.322C63.7468 296.15 63.7284 295.96 62.0955 295.928C61.1204 295.908 59.1988 295.27 57.826 294.51C56.13 293.571 54.9418 293.449 54.1238 294.128C52.5208 295.458 48.5416 294.139 49.1746 292.487C49.7193 291.067 47.2348 286.963 45.8309 286.963C44.5728 286.963 35.8231 278.847 35.8231 277.681C35.8231 277.1 37.4871 276.973 39.9481 277.367C43.78 277.98 44.0342 277.878 43.5272 275.938C43.0782 274.221 43.2342 274.059 44.4022 275.028C46.6741 276.914 46.0406 274.471 43.7127 272.369C42.5527 271.321 40.7375 268.625 39.6795 266.377C37.9885 262.785 29.7573 256.441 24.5213 254.696C21.1893 253.585 27.5839 242.826 31.0379 243.73C32.8048 244.192 33.0357 243.965 32.4178 242.374C31.1828 239.197 31.2554 238.448 32.7684 238.778C35.0593 239.276 38.8227 236.801 38.8231 234.794C38.8231 233.715 39.5439 232.963 40.5779 232.963C43.0149 232.963 45.0996 226.438 43.1737 224.839C42.4307 224.223 41.8231 222.9 41.8231 221.9C41.823 220.899 41.3729 219.803 40.8231 219.463C40.2731 219.123 39.8231 217.945 39.8231 216.845C39.8231 215.745 39.4205 215.093 38.9295 215.397C38.4384 215.7 37.0855 214.04 35.9237 211.706C34.7617 209.372 33.2645 206.563 32.5965 205.463C31.9285 204.363 30.3573 201.785 29.1033 199.734C26.2513 195.07 26.2154 191.993 28.9774 189.028C30.8989 186.965 30.957 186.618 29.5194 185.813C28.6324 185.316 28.1605 184.245 28.4735 183.431C28.8615 182.419 27.9015 181.476 25.4315 180.444C23.4467 179.615 21.786 178.38 21.741 177.7C21.499 174.063 20.5431 170.143 19.2762 167.585C18.4912 166.003 18.1172 163.64 18.4442 162.335C18.8492 160.724 18.6035 159.943 17.6805 159.9C16.9341 159.865 17.347 159.425 18.5975 158.923C21.2044 157.876 20.8038 153.423 17.911 151.294C13.1591 147.798 12.87 147.403 13.4549 145.213C13.7859 143.975 14.834 142.963 15.785 142.963C16.735 142.963 18.3281 142.063 19.3231 140.963C20.3181 139.863 21.5542 138.963 22.0682 138.963C22.5823 138.963 23.847 137.951 24.8787 136.713C26.4927 134.779 26.7609 134.71 26.7899 136.223C26.8079 137.191 25.9229 138.753 24.8231 139.695C22.2852 141.868 22.305 142.594 24.9237 143.279C26.0795 143.582 26.7278 144.308 26.3651 144.896C26.0023 145.483 25.92 145.963 26.1815 145.963C26.4445 145.963 27.4328 146.261 28.3778 146.623C29.5896 147.087 29.9501 146.866 29.6024 145.873C29.0314 144.244 32.5938 138.703 33.7518 139.419C34.1787 139.683 35.3646 139.287 36.3875 138.54C38.4045 137.065 37.003 133.964 34.3192 133.963C32.9872 133.963 30.2179 125.51 30.7147 122.963C30.8767 122.138 30.9536 119.741 30.8856 117.637C30.7766 114.238 31.1058 113.683 33.8338 112.653C35.9678 111.847 36.8578 110.879 36.7528 109.478C36.4928 106.022 36.7888 104.824 37.7537 105.42C38.2657 105.737 38.9407 105.581 39.2547 105.073C39.5679 104.566 40.6568 104.368 41.6746 104.635C44.2356 105.304 47.2646 102.201 45.7879 100.421C44.9809 99.4493 44.9929 98.5137 45.8309 96.9487C46.4608 95.7707 46.7305 94.1671 46.4305 93.3852C46.0505 92.3923 46.6314 91.9633 48.3543 91.9633C49.712 91.9632 50.8228 91.5132 50.8231 90.9633C50.8231 90.4135 50.3871 89.9636 49.8543 89.9633C49.3224 89.9633 49.1449 89.2882 49.4608 88.4633C49.7917 87.6015 49.481 86.9636 48.7303 86.9633C47.7133 86.9633 47.6899 86.6961 48.6229 85.7631C49.2829 85.1031 49.8231 83.8148 49.8231 82.9008C49.8233 81.6241 51.1422 81.0827 55.5067 80.5698C58.6325 80.2028 61.7825 79.411 62.5067 78.81C64.2735 77.3441 64.1799 74.9637 62.3543 74.9633C61.4603 74.9633 61.1108 75.5493 61.4608 76.4633C61.8237 77.4082 61.4499 77.9633 60.45 77.9633C58.464 77.9633 58.8759 72.1768 60.9559 70.8598C64.4336 68.656 58.1944 70.1802 53.6815 72.6362C50.1078 74.581 48.4698 75.0103 47.6688 74.2094C46.9258 73.4665 45.7561 73.4182 44.0643 74.061C39.8403 75.667 37.8231 74.3507 37.8231 69.9907C37.8233 65.514 41.1635 63.0775 53.0731 58.8667C60.4397 56.2628 60.5863 56.0654 58.1824 51.9956C56.1924 48.6276 56.994 44.361 59.7821 43.476C62.4579 42.6272 68.8174 43.9249 68.8377 45.3237C68.8797 48.4517 70.4558 49.1528 74.6307 47.9028C79.0287 46.5848 80.5395 44.5322 78.7215 42.3422C77.8406 41.2803 78.116 40.538 79.9549 39.018C81.9907 37.3362 82.4786 37.2654 83.4324 38.5122C85.3604 41.0312 100.442 37.019 99.3865 34.269C98.521 32.0121 103.808 29.185 104.979 31.2778C106.381 33.7828 109.101 33.326 112.231 30.059C115.014 27.1544 115.014 27.1541 112.856 24.9965C109.082 21.2226 112.1 14.3884 117.416 14.6713C123.005 14.9683 123.68 15.1663 123.238 16.3803C123.021 16.9763 123.233 18.0729 123.708 18.8178C124.754 20.4597 129.376 17.8723 130.306 15.1245C130.615 14.2105 133.671 11.332 137.096 8.72701C140.516 6.12608 143.361 3.99002 143.424 3.97701ZM208.763 322.963C209.345 322.963 209.823 323.413 209.823 323.963C209.823 324.513 209.625 324.963 209.382 324.963C209.139 324.963 208.663 324.513 208.323 323.963C207.983 323.413 208.182 322.964 208.763 322.963ZM116.823 315.345C116.823 314.52 117.273 314.123 117.823 314.463C118.373 314.803 118.823 315.757 118.823 316.582C118.823 317.406 118.373 317.803 117.823 317.463C117.273 317.123 116.823 316.17 116.823 315.345ZM202.323 313.963C202.598 313.963 202.823 314.188 202.823 314.463C202.823 314.738 202.598 314.963 202.323 314.963C202.048 314.963 201.823 314.738 201.823 314.463C201.823 314.188 202.048 313.963 202.323 313.963ZM74.7635 305.963C75.3455 305.963 75.8231 306.413 75.8231 306.963C75.823 307.513 75.6246 307.963 75.3817 307.963C75.1386 307.963 74.6629 307.513 74.3231 306.963C73.9831 306.413 74.1818 305.964 74.7635 305.963ZM71.8231 304.963C72.373 304.963 72.8231 305.413 72.8231 305.963C72.823 306.513 72.3729 306.963 71.8231 306.963C71.2731 306.963 70.8232 306.513 70.8231 305.963C70.8231 305.413 71.2731 304.963 71.8231 304.963ZM131.823 306.07C131.823 304.426 129.038 304.086 127.17 305.5C125.465 306.792 125.573 306.902 128.573 306.931C130.36 306.949 131.823 306.561 131.823 306.07ZM86.8231 303.963C87.5559 303.963 87.856 304.263 87.4901 304.63C87.1231 304.996 86.5231 304.996 86.1561 304.63C85.7901 304.263 86.0901 303.963 86.8231 303.963ZM77.2401 304.042C78.294 303.999 78.8836 304.235 78.5516 304.567C78.2196 304.899 77.3566 304.935 76.6356 304.646C75.838 304.327 76.0752 304.09 77.2401 304.042ZM78.8231 300.963C79.373 300.963 79.8231 301.413 79.8231 301.963C79.823 302.513 79.3729 302.963 78.8231 302.963C78.2731 302.963 77.8232 302.513 77.8231 301.963C77.8231 301.413 78.2731 300.963 78.8231 300.963ZM70.3231 299.963C71.148 299.963 71.8231 300.624 71.8231 301.432C71.8231 302.326 71.2371 302.675 70.3231 302.325C69.4981 302.008 68.8231 301.347 68.8231 300.856C68.8233 300.365 69.4982 299.963 70.3231 299.963ZM69.8231 291.963C70.3727 291.963 70.8226 292.161 70.8231 292.404C70.8231 292.647 70.3731 293.123 69.8231 293.463C69.2731 293.803 68.8231 293.604 68.8231 293.022C68.8232 292.44 69.2731 291.963 69.8231 291.963ZM270.323 285.963C271.148 285.963 271.823 286.133 271.823 286.341C271.823 286.548 271.148 287.279 270.323 287.963C269.094 288.983 268.823 288.914 268.823 287.585C268.823 286.693 269.498 285.963 270.323 285.963ZM275.323 284.963C275.598 284.963 275.823 285.188 275.823 285.463C275.823 285.738 275.598 285.963 275.323 285.963C275.048 285.963 274.823 285.738 274.823 285.463C274.823 285.188 275.048 284.963 275.323 284.963ZM273.515 281.322C274.055 279.913 274.222 279.924 275.064 281.429C276.122 283.319 275.489 284.493 273.932 283.531C273.371 283.182 273.183 282.189 273.515 281.322ZM269.981 280.963C269.981 279.588 270.208 279.026 270.485 279.713C270.763 280.401 270.763 281.526 270.485 282.213C270.208 282.901 269.981 282.338 269.981 280.963ZM272.323 279.963C272.598 279.963 272.823 280.188 272.823 280.463C272.823 280.738 272.598 280.963 272.323 280.963C272.048 280.963 271.823 280.738 271.823 280.463C271.823 280.188 272.048 279.963 272.323 279.963ZM266.479 278.508C266.109 277.545 266.407 277.251 267.374 277.622C269.054 278.267 269.168 278.632 267.928 279.398C267.435 279.703 266.783 279.302 266.479 278.508ZM273.323 277.963C273.598 277.963 273.823 278.188 273.823 278.463C273.823 278.738 273.598 278.963 273.323 278.963C273.048 278.963 272.823 278.738 272.823 278.463C272.823 278.188 273.048 277.963 273.323 277.963ZM312.823 274.963C312.823 274.23 313.123 273.93 313.49 274.296C313.856 274.663 313.856 275.263 313.49 275.63C313.123 275.996 312.823 275.696 312.823 274.963ZM306.823 264.522C306.823 262.765 307.423 262.507 308.28 263.894C308.597 264.406 308.398 265.108 307.839 265.454C307.28 265.798 306.823 265.379 306.823 264.522ZM39.241 257.57C36.868 256.659 36.5506 256.812 37.2156 258.545C37.5496 259.415 37.8231 260.315 37.8231 260.545C37.8235 260.775 38.4984 260.963 39.3231 260.963C41.3139 260.963 41.251 258.341 39.241 257.57ZM294.721 251.963C296.379 251.963 302.87 258.076 302.261 259.064C300.769 261.477 295.519 258.26 294.343 254.213C293.964 252.911 294.123 251.964 294.721 251.963ZM274.323 255.963C274.048 255.963 273.823 256.188 273.823 256.463C273.823 256.738 274.048 256.963 274.323 256.963C274.598 256.963 274.823 256.738 274.823 256.463C274.823 256.188 274.598 255.963 274.323 255.963ZM268.323 252.963C268.048 252.963 267.823 253.188 267.823 253.463C267.823 253.738 268.048 253.963 268.323 253.963C268.598 253.963 268.823 253.738 268.823 253.463C268.823 253.188 268.598 252.963 268.323 252.963ZM266.646 249.296C266.257 247.287 264.26 246.448 263.356 247.911C262.476 249.334 263.598 250.963 265.455 250.963C266.331 250.963 266.833 250.26 266.646 249.296ZM269.323 249.963C269.048 249.963 268.823 250.188 268.823 250.463C268.823 250.738 269.048 250.963 269.323 250.963C269.598 250.963 269.823 250.738 269.823 250.463C269.823 250.188 269.598 249.963 269.323 249.963ZM24.3231 232.963C24.598 232.963 24.8231 233.188 24.8231 233.463C24.823 233.738 24.5979 233.963 24.3231 233.963C24.0481 233.963 23.8232 233.738 23.8231 233.463C23.8231 233.188 24.0481 232.963 24.3231 232.963ZM26.3231 232.963C26.598 232.963 26.8231 233.188 26.8231 233.463C26.823 233.738 26.5979 233.963 26.3231 233.963C26.0481 233.963 25.8232 233.738 25.8231 233.463C25.8231 233.188 26.0481 232.963 26.3231 232.963ZM30.3231 182.963C30.0481 182.963 29.8231 183.188 29.8231 183.463C29.8232 183.738 30.0481 183.963 30.3231 183.963C30.5979 183.963 30.823 183.738 30.8231 183.463C30.8231 183.188 30.598 182.963 30.3231 182.963ZM25.8231 182.963C26.5559 182.963 26.856 183.263 26.4901 183.63C26.1231 183.996 25.5231 183.996 25.1561 183.63C24.7901 183.263 25.0901 182.963 25.8231 182.963ZM24.5418 168.045C24.7068 165.852 23.3077 164.369 22.4237 165.799C22.1289 166.277 22.4496 167.439 23.1375 168.378C24.2905 169.956 24.3998 169.93 24.5418 168.045ZM26.3231 165.963C26.0481 165.963 25.8231 166.188 25.8231 166.463C25.8232 166.738 26.0481 166.963 26.3231 166.963C26.5979 166.963 26.823 166.738 26.8231 166.463C26.8231 166.188 26.598 165.963 26.3231 165.963ZM278.023 154.164C281.374 150.813 285.386 154.145 284.39 159.453C283.619 163.564 281.534 164.032 278.766 160.713C276.583 158.097 276.33 155.857 278.023 154.164ZM0.823065 156.963C1.55594 156.963 1.85603 157.263 1.49006 157.63C1.12312 157.996 0.523086 157.996 0.156073 157.63C-0.209927 157.263 0.0900652 156.963 0.823065 156.963ZM286.917 147.963C287.415 147.963 287.823 148.863 287.823 149.963C287.823 151.063 287.65 151.962 287.44 151.963C287.229 151.963 286.821 151.063 286.533 149.963C286.246 148.863 286.418 147.963 286.917 147.963ZM285.323 145.963C285.598 145.963 285.823 146.188 285.823 146.463C285.823 146.738 285.598 146.963 285.323 146.963C285.048 146.963 284.823 146.738 284.823 146.463C284.823 146.188 285.048 145.963 285.323 145.963ZM293.205 142.963C293.48 142.963 293.983 143.413 294.323 143.963C294.663 144.513 294.716 144.963 294.441 144.963C294.166 144.963 293.663 144.513 293.323 143.963C292.983 143.413 292.93 142.963 293.205 142.963ZM18.6795 133.08C18.8755 133.016 18.7986 133.583 18.5076 134.341C18.2168 135.099 18.5072 136.25 19.1512 136.898C20.0502 137.802 19.7528 137.866 17.8738 137.174C14.8158 136.047 14.1344 134.282 16.5184 133.664C17.5105 133.407 18.4825 133.144 18.6795 133.08ZM27.4901 131.63C28.6061 130.513 29.4901 130.881 29.4901 132.463C29.49 133.288 28.8899 133.963 28.1561 133.963C26.7371 133.963 26.3861 132.734 27.4901 131.63ZM293.763 131.963C294.345 131.963 294.823 132.413 294.823 132.963C294.823 133.513 294.625 133.963 294.382 133.963C294.139 133.963 293.663 133.513 293.323 132.963C292.983 132.413 293.182 131.964 293.763 131.963ZM296.323 132.963C296.598 132.963 296.823 133.188 296.823 133.463C296.823 133.738 296.598 133.963 296.323 133.963C296.048 133.963 295.823 133.738 295.823 133.463C295.823 133.188 296.048 132.963 296.323 132.963ZM20.8231 128.963C21.373 128.963 21.8231 129.638 21.8231 130.463C21.823 131.288 21.3729 131.963 20.8231 131.963C20.2731 131.963 19.8231 131.288 19.8231 130.463C19.8231 129.638 20.2731 128.963 20.8231 128.963ZM302.823 129.091C306.081 127.786 307.823 127.729 307.823 128.928C307.823 130.677 303.932 132.124 302.06 131.07C300.503 130.194 300.582 129.989 302.823 129.091ZM14.3885 125.861C17.5155 124.636 18.4666 124.918 16.4256 126.463C15.3817 127.253 14.062 127.611 13.492 127.258C12.8941 126.889 13.2737 126.298 14.3885 125.861ZM290.882 124.963C291.4 124.963 291.823 125.413 291.823 125.963C291.823 126.513 291.12 126.963 290.263 126.963C289.407 126.963 288.983 126.513 289.323 125.963C289.663 125.413 290.364 124.963 290.882 124.963ZM253.323 104.963C253.048 104.963 252.823 105.188 252.823 105.463C252.823 105.738 253.048 105.963 253.323 105.963C253.598 105.963 253.823 105.738 253.823 105.463C253.823 105.188 253.598 104.963 253.323 104.963ZM38.3231 101.963C38.598 101.963 38.8231 102.188 38.8231 102.463C38.823 102.738 38.5979 102.963 38.3231 102.963C38.0481 102.963 37.8232 102.738 37.8231 102.463C37.8231 102.188 38.0481 101.963 38.3231 101.963ZM43.3231 100.963C43.598 100.963 43.8231 101.188 43.8231 101.463C43.823 101.738 43.5979 101.963 43.3231 101.963C43.0481 101.963 42.8232 101.738 42.8231 101.463C42.8231 101.188 43.0481 100.963 43.3231 100.963ZM32.0731 95.9458C33.86 94.8529 35.9221 94.1854 36.6551 94.4614C37.3872 94.7374 38.7372 94.9995 39.6551 95.0424C40.6539 95.0895 40.8314 95.3207 40.0975 95.6176C39.4238 95.8904 38.6452 95.9673 38.367 95.7885C38.089 95.6095 37.152 96.4753 36.286 97.7133C35.258 99.1803 33.6844 99.9633 31.7654 99.9633C27.9139 99.9632 28.0332 98.4167 32.0731 95.9458ZM260.323 98.9633C260.598 98.9634 260.823 99.1884 260.823 99.4633C260.823 99.7382 260.598 99.9632 260.323 99.9633C260.048 99.9633 259.823 99.7383 259.823 99.4633C259.823 99.1883 260.048 98.9633 260.323 98.9633ZM42.3231 97.9633C42.598 97.9634 42.8231 98.1884 42.8231 98.4633C42.823 98.7382 42.5979 98.9632 42.3231 98.9633C42.0481 98.9633 41.8232 98.7383 41.8231 98.4633C41.8231 98.1883 42.0481 97.9633 42.3231 97.9633ZM54.6434 89.7915C54.2964 87.4396 52.372 86.2652 51.411 87.8198C50.504 89.2878 51.8519 91.9633 53.4998 91.9633C54.4317 91.9633 54.8462 91.1762 54.6434 89.7915ZM239.323 74.9633C239.598 74.9634 239.823 75.1884 239.823 75.4633C239.823 75.7382 239.598 75.9632 239.323 75.9633C239.048 75.9633 238.823 75.7383 238.823 75.4633C238.823 75.1883 239.048 74.9633 239.323 74.9633ZM273.823 72.9594C273.823 72.4464 274.498 72.2376 275.323 72.4946C276.148 72.7526 277.573 73.2036 278.49 73.4965C279.664 73.8715 279.843 74.3424 279.097 75.0883C277.917 76.2677 273.824 74.6152 273.823 72.9594ZM69.8074 71.2133C69.8294 69.4163 68.1488 69.6726 67.4178 71.5766C67.0247 72.6002 66.0719 73.0001 64.8113 72.6704C63.7187 72.3845 62.8236 72.5091 62.8231 72.9477C62.8231 73.3867 64.0183 74.0465 65.4783 74.4135C68.145 75.0822 69.7744 73.878 69.8074 71.2133ZM244.382 68.9633C244.139 68.9636 243.663 69.4135 243.323 69.9633C242.983 70.5132 243.182 70.9631 243.763 70.9633C244.345 70.9633 244.823 70.5133 244.823 69.9633C244.823 69.4133 244.625 68.9633 244.382 68.9633ZM241.323 67.9633C241.048 67.9633 240.823 68.1883 240.823 68.4633C240.823 68.7383 241.048 68.9633 241.323 68.9633C241.598 68.9632 241.823 68.7382 241.823 68.4633C241.823 68.1884 241.598 67.9634 241.323 67.9633ZM144.24 46.0424C143.075 46.0904 142.838 46.327 143.636 46.646C144.357 46.935 145.22 46.8988 145.552 46.5669C145.884 46.2349 145.294 45.9995 144.24 46.0424ZM181.823 43.9633C181.09 43.9633 180.79 44.2633 181.156 44.6303C181.523 44.9962 182.123 44.9963 182.49 44.6303C182.856 44.2634 182.556 43.9634 181.823 43.9633ZM147.345 34.3335C146.209 33.8976 145.532 34.3585 145.147 35.8335C144.84 37.0054 143.967 37.9633 143.206 37.9633C142.446 37.9633 141.823 38.4133 141.823 38.9633C141.823 40.4821 144.417 40.1582 145.823 38.4633C146.508 37.6384 148.111 36.9635 149.386 36.9633C150.661 36.9633 151.983 36.5133 152.323 35.9633C152.663 35.4133 152.051 34.9633 150.964 34.9633C149.876 34.9633 148.247 34.6804 147.345 34.3335ZM138.947 36.6958C137.959 35.7159 137.845 35.8314 138.387 37.2563C138.763 38.2423 139.322 38.7967 139.63 38.4887C139.938 38.1817 139.631 37.3747 138.947 36.6958ZM160.323 29.9633C160.598 29.9634 160.823 30.1884 160.823 30.4633C160.823 30.7382 160.598 30.9632 160.323 30.9633C160.048 30.9633 159.823 30.7382 159.823 30.4633C159.823 30.1883 160.048 29.9633 160.323 29.9633ZM205.823 28.9633C206.556 28.9634 206.856 29.2634 206.49 29.6303C206.123 29.9963 205.523 29.9961 205.156 29.6303C204.79 29.2633 205.09 28.9633 205.823 28.9633ZM210.823 24.9633C211.373 24.9634 211.823 25.161 211.823 25.4038C211.823 25.6468 211.373 26.1233 210.823 26.4633C210.273 26.8033 209.823 26.6039 209.823 26.0219C209.823 25.44 210.273 24.9633 210.823 24.9633ZM176.323 24.9633C176.598 24.9634 176.823 25.1884 176.823 25.4633C176.823 25.7382 176.598 25.9632 176.323 25.9633C176.048 25.9633 175.823 25.7382 175.823 25.4633C175.823 25.1883 176.048 24.9633 176.323 24.9633ZM172.823 18.9633C173.556 18.9634 173.856 19.2634 173.49 19.6303C173.123 19.9963 172.523 19.9961 172.156 19.6303C171.79 19.2633 172.09 18.9633 172.823 18.9633ZM173.823 15.9633C173.823 15.2303 174.123 14.9303 174.49 15.2963C174.856 15.6634 174.856 16.2634 174.49 16.6303C174.123 16.9963 173.823 16.6962 173.823 15.9633ZM208.823 13.9633C209.556 13.9634 209.856 14.2634 209.49 14.6303C209.123 14.9963 208.523 14.9962 208.156 14.6303C207.79 14.2633 208.09 13.9633 208.823 13.9633ZM177.323 12.9633C177.598 12.9634 177.823 13.1884 177.823 13.4633C177.823 13.7382 177.598 13.9632 177.323 13.9633C177.048 13.9633 176.823 13.7382 176.823 13.4633C176.823 13.1883 177.048 12.9633 177.323 12.9633ZM166.323 10.9633C166.598 10.9634 166.823 11.1884 166.823 11.4633C166.823 11.7382 166.598 11.9632 166.323 11.9633C166.048 11.9633 165.823 11.7382 165.823 11.4633C165.823 11.1883 166.048 10.9633 166.323 10.9633ZM175.823 10.9633C175.823 10.2303 176.123 9.93035 176.49 10.2963C176.856 10.6634 176.856 11.2634 176.49 11.6303C176.123 11.9963 175.823 11.6962 175.823 10.9633ZM171.323 9.96334C171.598 9.96343 171.823 10.1884 171.823 10.4633C171.823 10.7382 171.598 10.9632 171.323 10.9633C171.048 10.9633 170.823 10.7382 170.823 10.4633C170.823 10.1883 171.048 9.96334 171.323 9.96334ZM132.382 6.96334C132.625 6.96334 132.823 7.41334 132.823 7.96334C132.823 8.51325 132.345 8.96334 131.763 8.96334C131.182 8.96314 130.983 8.51318 131.323 7.96334C131.663 7.41353 132.139 6.96364 132.382 6.96334ZM122.823 7.96334C123.556 7.96339 123.856 8.26336 123.49 8.63033C123.123 8.99625 122.523 8.99614 122.156 8.63033C121.79 8.26333 122.09 7.96334 122.823 7.96334ZM167.204 2.311C170.133 -0.207938 172.823 -0.770742 172.823 1.13424C172.823 2.86018 169.742 5.96305 168.028 5.96334C167.212 5.96334 166.002 6.70389 165.34 7.60885C164.278 9.06077 164.156 8.98412 164.305 6.95846C164.398 5.69446 165.703 3.603 167.204 2.311Z" fill="#E3C075"/>
</g>
<path id="stroke0_108_1197_ref" d="M14.1534 356.19C14.1075 356.236 14.0615 356.282 14.0149 356.375C13.9682 356.467 13.9223 356.605 13.5964 357.026"/>
</defs>
</svg>
