<svg width="386" height="558" viewBox="0 0 386 558" fill="none" xmlns="http://www.w3.org/2000/svg">
<path d="M216.087 510.63L235.635 506.78C235.635 506.78 245.207 532.449 241.359 535.841C237.511 539.233 231.893 540.841 231.893 540.841C231.893 540.841 228.837 543.238 221.811 539.692C214.785 536.146 216.087 510.63 216.087 510.63Z" fill="black"/>
<path d="M258.749 502.227L278.297 498.376C278.297 498.376 287.87 524.046 284.022 527.438C280.174 530.83 274.556 532.438 274.556 532.438C274.556 532.438 271.5 534.835 264.473 531.289C257.447 527.742 258.749 502.227 258.749 502.227Z" fill="#100E0E"/>
<path d="M278.007 498.918C278.022 498.955 278.04 498.993 278.058 499.035C278.192 499.343 278.381 499.79 278.601 500.339C279.042 501.438 279.607 502.943 280.107 504.572C280.608 506.204 281.038 507.945 281.216 509.519C281.397 511.114 281.307 512.452 280.854 513.337C279.884 515.232 278.104 516.381 276.514 517.059C275.725 517.397 274.996 517.612 274.466 517.742C274.202 517.807 273.987 517.85 273.841 517.877C273.768 517.89 273.711 517.9 273.674 517.906C273.656 517.909 273.641 517.91 273.633 517.912L273.623 517.914L273.552 517.924L273.488 517.952C273.487 517.953 273.485 517.953 273.482 517.954C273.476 517.957 273.467 517.962 273.453 517.967C273.427 517.978 273.384 517.995 273.328 518.017C273.215 518.06 273.043 518.122 272.815 518.194C272.361 518.339 271.685 518.524 270.815 518.679C269.075 518.989 266.56 519.18 263.481 518.692C262.15 518.481 261.179 517.475 260.48 515.908C259.782 514.343 259.403 512.314 259.216 510.275C259.03 508.242 259.037 506.235 259.091 504.733C259.118 503.983 259.156 503.361 259.188 502.928C259.197 502.811 259.206 502.708 259.213 502.62L278.007 498.918Z" fill="white" stroke="black"/>
<path d="M235.189 507.352C235.205 507.388 235.223 507.427 235.241 507.468C235.374 507.777 235.563 508.224 235.783 508.773C236.224 509.871 236.79 511.377 237.29 513.006C237.791 514.637 238.221 516.378 238.399 517.953C238.579 519.547 238.489 520.885 238.036 521.771C237.066 523.666 235.287 524.815 233.697 525.493C232.907 525.83 232.179 526.045 231.649 526.175C231.384 526.24 231.17 526.283 231.023 526.31C230.95 526.324 230.894 526.333 230.857 526.339C230.838 526.342 230.824 526.344 230.815 526.345L230.806 526.347L230.735 526.357L230.671 526.386C230.67 526.386 230.667 526.387 230.664 526.388C230.659 526.391 230.649 526.395 230.636 526.401C230.609 526.412 230.567 526.429 230.51 526.45C230.397 526.494 230.225 526.556 229.998 526.628C229.543 526.772 228.867 526.957 227.997 527.112C226.258 527.423 223.743 527.614 220.663 527.126C219.333 526.915 218.361 525.909 217.663 524.342C216.964 522.776 216.586 520.748 216.399 518.708C216.212 516.676 216.22 514.669 216.274 513.167C216.301 512.417 216.339 511.795 216.371 511.361C216.379 511.245 216.389 511.142 216.396 511.054L235.189 507.352Z" fill="white" stroke="black"/>
<path d="M247.47 401.659L301.014 493.393L197.97 513.689L202.219 410.572L247.47 401.659Z" fill="#DD4646" stroke="#690909"/>
<path d="M270.118 440.436L282.162 461.194L199.445 477.486L200.422 453.84L270.118 440.436Z" fill="#723132" stroke="#690909"/>
<path d="M113.759 418.957C115.923 418.084 119.276 417.718 123.539 417.501C132.003 417.07 143.844 417.233 156.03 414.833C168.124 412.45 179.432 412.23 187.929 413.784C192.179 414.561 195.699 415.778 198.26 417.368C200.821 418.957 202.381 420.89 202.816 423.1C203.038 424.224 202.978 425.178 202.684 426.005C202.39 426.831 201.849 427.566 201.053 428.233C199.445 429.581 196.843 430.611 193.341 431.511C189.852 432.407 185.542 433.156 180.568 433.983C175.602 434.808 169.983 435.709 163.904 436.907C151.853 439.28 139.084 438.143 129.101 435.224C124.109 433.764 119.834 431.865 116.701 429.753C113.55 427.629 111.638 425.347 111.206 423.152C110.989 422.05 111.137 421.226 111.544 420.583C111.958 419.928 112.685 419.391 113.759 418.957Z" fill="#FFD7BA" stroke="black"/>
<path d="M333.623 375.651C331.289 375.664 328.049 376.596 324.022 378.012C316.026 380.823 305.132 385.464 292.945 387.865C280.851 390.247 270.305 394.331 263.032 398.991C259.394 401.322 256.598 403.783 254.831 406.225C253.064 408.666 252.354 411.047 252.789 413.257C253.01 414.381 253.428 415.241 254.013 415.894C254.599 416.548 255.378 417.023 256.367 417.338C258.366 417.975 261.164 417.942 264.746 417.446C268.314 416.952 272.586 416.011 277.502 414.89C282.411 413.77 287.951 412.473 294.03 411.276C306.082 408.902 317.465 403.008 325.596 396.521C329.661 393.277 332.897 389.899 334.995 386.757C337.105 383.596 338.009 380.759 337.576 378.564C337.359 377.462 336.91 376.756 336.289 376.316C335.657 375.867 334.781 375.645 333.623 375.651Z" fill="#FFD7BA" stroke="black"/>
<path d="M200.651 277.698C241.533 269.645 280.844 294.654 288.494 333.496C296.145 372.338 269.255 410.386 228.372 418.439C187.49 426.491 148.18 401.482 140.529 362.64C132.879 323.798 159.768 285.75 200.651 277.698Z" fill="#FFD7BA" stroke="black"/>
<path d="M139.343 358.535C134.289 320.896 160.897 285.018 200.554 277.207C236.426 270.141 271.128 288.375 284.528 319.116" stroke="#2C1D1D" stroke-width="16"/>
<path d="M186.418 334.165C172.736 336.86 163.73 349.282 166.205 361.847C168.68 374.412 181.724 382.491 195.406 379.796C209.088 377.101 218.095 364.679 215.62 352.114C213.145 339.549 200.101 331.47 186.418 334.165Z" fill="white" stroke="black"/>
<path d="M173.046 368.704C174.56 376.395 183.418 380.753 191.772 379.108C200.126 377.462 205.67 369.894 204.155 362.203C202.641 354.513 194.64 349.612 186.287 351.258C177.933 352.903 171.531 361.014 173.046 368.704Z" fill="#FF8686"/>
<ellipse cx="11.2013" cy="10.7097" rx="11.2013" ry="10.7097" transform="matrix(-0.981149 0.193254 0.193254 0.981149 197.803 356.089)" fill="black"/>
<path d="M185.569 366.407C181.976 367.114 179.658 370.367 180.296 373.61C180.935 376.854 184.314 378.985 187.907 378.277C191.5 377.569 193.818 374.316 193.179 371.073C192.54 367.83 189.162 365.699 185.569 366.407Z" fill="white" stroke="black"/>
<path d="M186.418 334.165C172.736 336.86 163.73 349.282 166.205 361.847C168.68 374.412 181.724 382.491 195.406 379.796C209.088 377.101 218.095 364.679 215.62 352.114C213.145 339.549 200.101 331.47 186.418 334.165Z" stroke="black"/>
<path d="M246.091 318.148C232.409 320.843 223.403 333.264 225.878 345.83C228.353 358.394 241.397 366.473 255.079 363.779C268.761 361.084 277.768 348.662 275.293 336.096C272.818 323.531 259.773 315.453 246.091 318.148Z" fill="white" stroke="black"/>
<path d="M232.719 352.687C234.233 360.378 243.091 364.736 251.445 363.09C259.799 361.445 265.343 353.877 263.828 346.186C262.313 338.496 254.313 333.595 245.959 335.241C237.606 336.886 231.204 344.997 232.719 352.687Z" fill="#FF8686"/>
<ellipse cx="11.2013" cy="10.7097" rx="11.2013" ry="10.7097" transform="matrix(-0.981149 0.193254 0.193254 0.981149 257.476 340.072)" fill="black"/>
<path d="M245.242 350.389C241.649 351.097 239.331 354.35 239.969 357.593C240.608 360.837 243.987 362.968 247.58 362.26C251.173 361.552 253.491 358.299 252.852 355.056C252.213 351.812 248.835 349.682 245.242 350.389Z" fill="white" stroke="black"/>
<path d="M246.091 318.148C232.409 320.843 223.403 333.264 225.878 345.83C228.353 358.394 241.397 366.473 255.079 363.779C268.761 361.084 277.768 348.662 275.293 336.096C272.818 323.531 259.773 315.453 246.091 318.148Z" stroke="black"/>
<path d="M217.984 391.829C218.772 393.009 220.892 394.716 222.136 395.176C222.84 395.437 225.688 395.009 228.738 394.075C229.88 393.725 230.462 393.009 231.63 392.275C232.664 391.399 233.224 390.844 233.842 389.578C233.9 389.147 233.795 388.614 233.687 388.065" stroke="black" stroke-width="2" stroke-linecap="round"/>
<path d="M189.119 281.469L221.937 276.953L258.89 289.808L271.659 302.685L283.807 320.415L266.263 325.819C266.263 325.819 239.798 307.592 243.637 310.368C247.476 313.144 251.473 328.732 251.473 328.732L220.693 332.847C220.693 332.847 208.606 327.189 206.039 317.774C203.473 308.359 198.357 339.194 198.357 339.194L172.061 347.402C172.061 347.402 162.845 325.365 165.014 336.888C167.182 348.412 160.971 352.616 160.971 352.616L143.455 358.442L140.173 341.781L158.935 303.471L189.119 281.469Z" fill="#2C1D1D"/>
<path d="M158.537 299.279C159.108 298.714 159.929 297.913 160.93 296.969C162.931 295.082 165.658 292.618 168.548 290.317C171.432 288.021 174.505 285.867 177.199 284.62C178.544 283.997 179.828 283.584 180.966 283.51C182.115 283.437 183.159 283.709 183.933 284.504C184.224 284.802 184.366 284.808 184.385 284.807C184.39 284.806 184.411 284.805 184.452 284.77C184.498 284.73 184.562 284.655 184.635 284.524C184.781 284.257 184.919 283.837 185.038 283.255C185.155 282.679 185.246 281.975 185.314 281.157C185.586 277.878 185.461 272.929 185.138 267.609C184.492 256.97 183.064 244.975 182.506 242.144C182.247 240.829 181.355 239.19 179.96 237.529C178.572 235.876 176.719 234.238 174.597 232.92C170.34 230.278 165.101 228.98 160.374 231.25C155.471 233.605 151.667 236.265 149.001 240.003C146.337 243.739 144.773 248.602 144.443 255.426C144.28 258.792 145.058 263.273 146.342 268.138C147.622 272.991 149.394 278.183 151.19 282.954C152.985 287.723 154.801 292.064 156.169 295.213C156.852 296.786 157.424 298.062 157.824 298.944C157.951 299.224 158.062 299.465 158.153 299.662C158.264 299.551 158.392 299.422 158.537 299.279Z" fill="#E65656" stroke="black"/>
<path d="M240.658 280.402C240.677 280.39 240.746 280.336 240.838 280.122C240.96 279.841 241.063 279.404 241.138 278.804C241.212 278.211 241.254 277.488 241.268 276.651C241.32 273.299 240.904 268.268 240.289 262.873C239.062 252.092 237.057 239.964 236.507 237.17C236.252 235.874 235.256 233.912 233.699 231.74C232.152 229.584 230.087 227.274 227.754 225.283C225.418 223.29 222.833 221.635 220.248 220.764C217.667 219.894 215.115 219.813 212.793 220.915C207.842 223.266 205.187 224.878 203.625 227.501C202.05 230.148 201.544 233.893 201.186 240.679C201.013 243.96 201.929 247.839 203.432 251.843C204.932 255.839 207.002 259.92 209.101 263.589C211.199 267.257 213.32 270.505 214.916 272.837C215.715 274.002 216.382 274.938 216.849 275.582C217.082 275.904 217.266 276.153 217.39 276.321C217.4 276.334 217.408 276.346 217.416 276.358C217.543 276.348 217.71 276.335 217.915 276.321C218.411 276.288 219.124 276.246 219.995 276.212C221.735 276.145 224.112 276.11 226.652 276.238C229.19 276.365 231.905 276.654 234.318 277.244C236.717 277.83 238.887 278.729 240.265 280.12C240.506 280.363 240.629 280.397 240.658 280.402Z" fill="#E65656" stroke="black"/>
<g filter="url(#filter0_d_144_379)">
<path d="M139.343 358.535C134.289 320.896 160.897 285.018 200.554 277.207C236.426 270.141 271.128 288.375 284.528 319.116" stroke="#E65656" stroke-width="3"/>
</g>
<path d="M217.57 57.6354C211.706 45.6666 199.818 44.7144 184.726 55.0111C182.591 51.827 179.726 50.6266 177.417 50.0483C168.215 50.4281 155.801 57.4283 144.893 69.2373C142.024 68.3897 137.269 58.805 126.907 73.2046C121.642 80.5218 117.713 92.0959 114.893 92.5393C111.615 93.0546 103.64 85.4389 89.789 105.76C82.3189 116.72 77.231 124.511 75.5997 129.14C74.6542 131.823 73.8809 135.276 73.8161 138.305C73.7512 141.334 73.9662 144.895 76.4415 145.082C86.4768 145.842 90.0433 147.145 92.5034 153.002C97.5383 164.99 115.559 155.225 121 164.53C122.48 167.062 122.915 171.514 125.362 173.214C126.69 174.137 128.715 174.003 131.972 172.492C145.703 166.124 150.964 178.938 164.999 168.383C181.606 155.894 194.349 154.275 206.707 148.83C230.568 138.317 246.061 138.031 254.322 126.041C261.237 116.004 266.126 107.937 268.332 100.652L268.424 100.351C271.049 91.6834 273.429 83.8247 272.439 80.6704C271.201 76.7297 266.62 76.401 264.057 71.836C260.948 66.2983 263.283 47.5402 250.158 54.6123C232.113 64.3351 218.703 75.1257 218.631 71.071C218.582 68.3262 219.931 62.4537 217.57 57.6354Z" fill="#F26F6F" stroke="black" stroke-width="4" stroke-linecap="round"/>
<path d="M75.3852 143.891C75.0779 146.19 -11.6407 208.678 16.8224 251.39C31.8075 272.413 25.6027 287.377 35.4586 298.905C45.3145 310.432 48.4551 313.192 51.2252 319.518" stroke="black" stroke-width="4" stroke-linecap="round"/>
<path d="M77.9021 146.225C77.9067 146.19 79.2915 184.647 80.7341 205.011C82.1157 224.515 30.1067 256.358 40.0172 283.65C42.8637 293.514 43.1119 300.672 44.0605 306.702C45.4701 309.283 48.7644 310.893 51.6928 316.035" stroke="black" stroke-width="4" stroke-linecap="round"/>
<path d="M267.701 104.624C266.608 104.466 265.578 105.223 265.401 106.314C265.224 107.404 265.966 108.416 267.059 108.573L267.38 106.598L267.701 104.624ZM330 275.151C329.843 276.244 330.604 277.242 331.7 277.378C332.796 277.515 333.812 276.739 333.969 275.646L331.984 275.399L330 275.151ZM267.38 106.598L267.059 108.573C299.364 113.222 317.735 139.701 327.732 167.913C332.713 181.971 335.556 196.315 336.991 208.28C338.432 220.288 338.435 229.748 337.822 234.052L339.807 234.297L341.792 234.543C342.477 229.735 342.429 219.879 340.973 207.738C339.511 195.552 336.614 180.914 331.516 166.527C321.354 137.849 302.212 109.59 267.701 104.624L267.38 106.598ZM339.807 234.297L337.822 234.052C335.239 252.171 333.437 258.119 332.249 262.969L334.197 263.409L336.144 263.849C337.337 258.978 339.179 252.87 341.792 234.543L339.807 234.297ZM334.197 263.409L332.249 262.969C331.034 267.931 330.519 271.525 330 275.151L331.984 275.399L333.969 275.646C334.486 272.037 334.978 268.608 336.144 263.849L334.197 263.409Z" fill="black"/>
<path d="M273.377 82.1553C272.359 82.6076 271.888 83.7888 272.325 84.7936C272.761 85.7984 273.94 86.2463 274.957 85.7941L274.167 83.9747L273.377 82.1553ZM366.158 226.252L364.233 225.729L366.158 226.252ZM346.547 258.307L345.02 257.04L344.947 257.128L344.883 257.223L346.547 258.307ZM274.167 83.9747L274.957 85.7941C278.791 84.0904 283.146 84.2157 287.998 86.0592C292.875 87.9128 298.127 91.4628 303.549 96.3882C314.388 106.234 325.552 121.251 335.37 137.886C345.178 154.504 353.574 172.623 358.918 188.593C361.591 196.579 363.487 203.988 364.423 210.377C365.365 216.808 365.308 222.027 364.233 225.729L366.158 226.252L368.083 226.774C369.394 222.262 369.365 216.38 368.391 209.733C367.411 203.046 365.445 195.402 362.725 187.272C357.283 171.01 348.766 152.644 338.837 135.82C328.918 119.014 317.522 103.632 306.281 93.4196C300.663 88.3159 294.995 84.4217 289.485 82.3282C283.95 80.2246 278.451 79.8999 273.377 82.1553L274.167 83.9747ZM366.158 226.252L364.233 225.729C359.345 242.555 351.553 249.292 345.02 257.04L346.547 258.307L348.073 259.573C354.395 252.074 362.902 244.612 368.083 226.774L366.158 226.252ZM346.547 258.307L344.883 257.223C343.224 259.706 339.953 262.555 336.607 265.389C334.99 266.759 333.367 268.119 332.051 269.346C330.797 270.516 329.563 271.793 328.957 273.013L330.751 273.871L332.545 274.73C332.781 274.256 333.48 273.434 334.765 272.235C335.99 271.092 337.517 269.812 339.175 268.408C342.38 265.693 346.164 262.453 348.21 259.391L346.547 258.307ZM330.751 273.871L329.53 272.311C329.398 272.414 329.202 272.578 329.025 272.796C328.936 272.905 328.797 273.093 328.689 273.351C328.581 273.609 328.453 274.059 328.572 274.598C328.632 274.869 328.746 275.12 328.904 275.337C329.058 275.55 329.235 275.706 329.397 275.817C329.705 276.027 330.002 276.106 330.167 276.139C330.346 276.175 330.502 276.183 330.609 276.184C330.72 276.186 330.821 276.179 330.903 276.172C331.202 276.144 331.502 276.073 331.722 276.013C331.962 275.948 332.21 275.868 332.432 275.787C332.544 275.746 332.658 275.701 332.767 275.653C332.872 275.608 332.998 275.55 333.125 275.48C333.189 275.445 333.274 275.395 333.367 275.331C333.444 275.277 333.608 275.158 333.772 274.972C333.857 274.876 333.983 274.715 334.091 274.491C334.2 274.265 334.318 273.91 334.288 273.472C334.255 273.005 334.064 272.604 333.804 272.307C333.565 272.035 333.304 271.887 333.134 271.81C332.96 271.73 332.805 271.69 332.703 271.668C332.595 271.645 332.501 271.634 332.431 271.628C332.293 271.616 332.172 271.618 332.087 271.622C331.917 271.629 331.744 271.651 331.59 271.675C331.274 271.723 330.858 271.807 330.332 271.928L330.751 273.871L331.171 275.815C331.658 275.703 331.96 275.644 332.129 275.619C332.218 275.605 332.23 275.607 332.194 275.608C332.177 275.609 332.111 275.612 332.016 275.604C331.967 275.599 331.892 275.591 331.801 275.571C331.714 275.553 331.573 275.517 331.409 275.442C331.25 275.369 330.996 275.227 330.763 274.961C330.508 274.67 330.32 274.276 330.288 273.817C330.258 273.386 330.375 273.039 330.479 272.821C330.583 272.607 330.703 272.455 330.779 272.369C330.926 272.202 331.064 272.104 331.108 272.074C331.167 272.033 331.212 272.007 331.228 271.999C331.26 271.981 331.266 271.98 331.23 271.996C331.2 272.008 331.156 272.026 331.099 272.047C330.984 272.09 330.851 272.132 330.733 272.164C330.594 272.202 330.556 272.203 330.601 272.199C330.62 272.197 330.663 272.194 330.723 272.194C330.777 272.195 330.887 272.199 331.028 272.227C331.155 272.253 331.421 272.32 331.706 272.515C331.857 272.618 332.025 272.765 332.172 272.968C332.322 273.175 332.431 273.415 332.489 273.674C332.602 274.189 332.479 274.61 332.384 274.834C332.29 275.059 332.176 275.209 332.122 275.275C332.016 275.405 331.936 275.461 331.973 275.432L330.751 273.871Z" fill="black"/>
<path d="M46.564 311.111C65.2768 346.276 83.9897 381.441 94.3314 400.534C104.673 419.627 106.076 421.583 108.038 426.82" stroke="black" stroke-width="4" stroke-linecap="round"/>
<path d="M333.897 270.142C334.031 269.058 333.239 268.102 332.127 268.008C331.015 267.914 330.004 268.717 329.87 269.802L331.883 269.972L333.897 270.142ZM316.051 380.149C316.022 381.238 316.906 382.113 318.026 382.104C319.146 382.095 320.077 381.205 320.106 380.117L318.078 380.133L316.051 380.149ZM331.883 269.972L329.87 269.802C329.269 274.629 328.669 279.456 326.394 297.264L328.407 297.441L330.419 297.618C332.695 279.806 333.296 274.975 333.897 270.142L331.883 269.972ZM328.407 297.441L326.394 297.264C324.119 315.071 320.187 345.719 318.15 361.948L320.163 362.12L322.176 362.293C324.213 346.069 328.144 315.43 330.419 297.618L328.407 297.441ZM320.163 362.12L318.15 361.948C316.12 378.114 316.078 379.121 316.051 380.149L318.078 380.133L320.106 380.117C320.127 379.331 320.132 378.579 322.176 362.293L320.163 362.12Z" fill="black"/>
<path d="M50.7785 315.271C51.0168 313.489 51.2551 311.707 50.4659 298.227C49.6766 284.748 47.8526 259.625 47.5346 241.064C47.2166 222.504 41.6342 243.042 49.0241 205.08C56.4139 167.117 33.8581 198.414 49.281 197.284C64.704 196.154 93.1787 150.149 93.0216 149.327" stroke="black" stroke-width="4" stroke-linecap="round"/>
<path d="M329.551 271.885C330.138 272.81 331.374 273.073 332.314 272.473C333.253 271.873 333.539 270.637 332.953 269.713L331.252 270.799L329.551 271.885ZM310.847 207.111L312.759 206.475L310.847 207.111ZM276.651 171.082L275.462 172.709L275.56 172.779L275.667 172.837L276.651 171.082ZM254.171 152.565L252.601 153.833L252.676 153.926L252.762 154.009L254.171 152.565ZM247.338 134.183C246.97 133.15 245.826 132.624 244.781 133.008C243.737 133.392 243.188 134.54 243.555 135.573L245.446 134.878L247.338 134.183ZM331.252 270.799L332.953 269.713C331.616 267.607 330.213 265.479 326.552 253.508L324.633 254.12L322.714 254.731C326.429 266.879 327.956 269.371 329.551 271.885L331.252 270.799ZM324.633 254.12L326.552 253.508C322.916 241.621 316.974 219.638 312.759 206.475L310.847 207.111L308.936 207.747C313.182 221.005 318.973 242.5 322.714 254.731L324.633 254.12ZM310.847 207.111L312.759 206.475C308.931 194.524 303.557 187.031 297.332 181.595C291.187 176.229 284.237 172.912 277.635 169.327L276.651 171.082L275.667 172.837C282.509 176.553 288.929 179.612 294.658 184.615C300.307 189.549 305.309 196.42 308.936 207.747L310.847 207.111ZM276.651 171.082L277.84 169.455C264.734 160.081 259.516 154.921 255.58 151.122L254.171 152.565L252.762 154.009C256.782 157.89 262.15 163.188 275.462 172.709L276.651 171.082ZM254.171 152.565L255.742 151.298C255.418 150.898 254.808 149.899 253.997 148.406C253.216 146.966 252.319 145.2 251.432 143.378C249.643 139.703 247.958 135.927 247.338 134.183L245.446 134.878L243.555 135.573C244.254 137.539 246.025 141.486 247.817 145.168C248.72 147.023 249.644 148.844 250.462 150.351C251.251 151.804 252.019 153.113 252.601 153.833L254.171 152.565Z" fill="black"/>
<defs>
<filter id="filter0_d_144_379" x="133.228" y="274.191" width="156.676" height="92.5444" filterUnits="userSpaceOnUse" color-interpolation-filters="sRGB">
<feFlood flood-opacity="0" result="BackgroundImageFix"/>
<feColorMatrix in="SourceAlpha" type="matrix" values="0 0 0 0 0 0 0 0 0 0 0 0 0 0 0 0 0 0 127 0" result="hardAlpha"/>
<feOffset dy="4"/>
<feGaussianBlur stdDeviation="2"/>
<feComposite in2="hardAlpha" operator="out"/>
<feColorMatrix type="matrix" values="0 0 0 0 0 0 0 0 0 0 0 0 0 0 0 0 0 0 0.25 0"/>
<feBlend mode="normal" in2="BackgroundImageFix" result="effect1_dropShadow_144_379"/>
<feBlend mode="normal" in="SourceGraphic" in2="effect1_dropShadow_144_379" result="shape"/>
</filter>
</defs>
</svg>
