<svg width="280" height="355" viewBox="0 0 280 355" fill="none" xmlns="http://www.w3.org/2000/svg">
<path d="M125.684 307.714L145.913 303.955C145.913 303.955 155.951 329.687 151.981 333.063C148.012 336.438 142.201 338.02 142.201 338.02C142.201 338.02 139.047 340.404 131.752 336.822C124.458 333.24 125.684 307.714 125.684 307.714Z" fill="black"/>
<path d="M169.832 299.51L190.061 295.75C190.061 295.75 200.098 321.483 196.129 324.858C192.16 328.234 186.349 329.816 186.349 329.816C186.349 329.816 183.195 332.199 175.9 328.617C168.606 325.035 169.832 299.51 169.832 299.51Z" fill="#100E0E"/>
<path d="M189.778 296.287C189.795 296.324 189.814 296.364 189.833 296.407C189.973 296.717 190.17 297.165 190.401 297.715C190.863 298.816 191.456 300.325 191.981 301.956C192.508 303.591 192.962 305.335 193.154 306.91C193.348 308.505 193.262 309.842 192.797 310.725C191.8 312.62 189.957 313.764 188.31 314.437C187.492 314.771 186.737 314.983 186.187 315.111C185.913 315.174 185.691 315.218 185.539 315.244C185.463 315.257 185.404 315.267 185.365 315.272C185.346 315.275 185.332 315.277 185.323 315.278C185.318 315.279 185.315 315.28 185.313 315.28L185.311 315.279L185.243 315.288L185.181 315.316L185.18 315.316C185.179 315.316 185.176 315.317 185.173 315.318C185.167 315.32 185.158 315.325 185.144 315.33C185.116 315.341 185.072 315.358 185.013 315.38C184.895 315.423 184.717 315.484 184.482 315.556C184.011 315.699 183.31 315.881 182.408 316.032C180.605 316.335 177.997 316.514 174.802 316.01C173.412 315.791 172.403 314.775 171.674 313.208C170.944 311.64 170.542 309.611 170.339 307.569C170.136 305.536 170.133 303.528 170.182 302.025C170.207 301.275 170.243 300.653 170.274 300.219C170.283 300.1 170.292 299.996 170.299 299.906L189.778 296.287Z" fill="white" stroke="black"/>
<path d="M145.47 304.521C145.487 304.558 145.505 304.599 145.525 304.642C145.664 304.951 145.862 305.399 146.093 305.949C146.554 307.05 147.147 308.559 147.673 310.191C148.199 311.826 148.653 313.569 148.845 315.145C149.039 316.739 148.954 318.076 148.489 318.96C147.492 320.854 145.649 321.998 144.002 322.671C143.183 323.006 142.429 323.217 141.879 323.345C141.605 323.409 141.383 323.452 141.231 323.478C141.155 323.492 141.096 323.501 141.057 323.507C141.038 323.51 141.023 323.511 141.014 323.513C141.01 323.513 141.007 323.514 141.005 323.514L141.003 323.514L140.935 323.522L140.873 323.55L140.872 323.55C140.87 323.551 140.868 323.551 140.865 323.552C140.859 323.555 140.849 323.559 140.836 323.565C140.808 323.576 140.763 323.592 140.704 323.614C140.587 323.657 140.409 323.719 140.174 323.79C139.702 323.933 139.001 324.115 138.1 324.267C136.297 324.569 133.689 324.748 130.494 324.244C129.104 324.025 128.095 323.009 127.365 321.442C126.636 319.875 126.234 317.845 126.03 315.804C125.828 313.77 125.825 311.762 125.874 310.26C125.898 309.51 125.935 308.887 125.966 308.453C125.975 308.334 125.984 308.23 125.991 308.141L145.47 304.521Z" fill="white" stroke="black"/>
<path d="M157.684 198.819L213.583 290.871L106.918 310.693L110.827 207.527L157.684 198.819Z" fill="#DD4646" stroke="#690909"/>
<path d="M181.327 237.729L193.903 258.561L108.273 274.475L109.173 250.814L181.327 237.729Z" fill="#723132" stroke="#690909"/>
<path d="M19.2531 215.494C21.4963 214.628 24.9717 214.277 29.3855 214.081C38.153 213.69 50.4137 213.91 63.0216 211.567C75.5395 209.24 87.2541 209.074 96.0663 210.67C100.474 211.468 104.129 212.703 106.792 214.307C109.454 215.911 111.076 217.853 111.537 220.062C111.771 221.186 111.714 222.139 111.414 222.964C111.113 223.789 110.555 224.524 109.732 225.189C108.068 226.533 105.373 227.553 101.749 228.437C98.1378 229.317 93.676 230.047 88.5287 230.85C83.3882 231.653 77.5739 232.527 71.284 233.696C58.8073 236.015 45.5717 234.816 35.2141 231.846C30.0352 230.36 25.5973 228.438 22.3415 226.309C19.065 224.167 17.0758 221.875 16.6185 219.682C16.3892 218.581 16.5371 217.759 16.9564 217.116C17.3845 216.46 18.1393 215.924 19.2531 215.494Z" fill="#FFD7BA" stroke="black"/>
<path d="M246.784 173.209C244.361 173.211 241.004 174.13 236.84 175.527C228.57 178.303 217.312 182.893 204.704 185.236C192.186 187.562 181.279 191.6 173.764 196.23C170.006 198.546 167.119 200.997 165.299 203.434C163.479 205.871 162.757 208.249 163.218 210.457C163.452 211.581 163.887 212.443 164.496 213.099C165.106 213.755 165.917 214.235 166.945 214.556C169.025 215.205 171.928 215.185 175.637 214.705C179.332 214.228 183.754 213.306 188.84 212.208C193.919 211.111 199.651 209.841 205.94 208.672C218.417 206.353 230.184 200.507 238.577 194.052C242.773 190.825 246.109 187.458 248.267 184.323C250.439 181.168 251.36 178.336 250.903 176.142C250.674 175.042 250.207 174.334 249.561 173.889C248.901 173.435 247.988 173.209 246.784 173.209Z" fill="#FFD7BA" stroke="black"/>
<path d="M108.583 74.5572C150.91 66.6911 191.742 91.9188 199.85 130.811C207.957 169.702 180.297 207.658 137.969 215.525C95.6414 223.391 54.8087 198.163 46.7012 159.272C38.5937 120.38 66.2549 82.4234 108.583 74.5572Z" fill="#FFD7BA" stroke="black"/>
<path d="M45.4692 155.155L53.4214 154.188C48.6778 121.169 72.7177 88.8489 110.113 81.8993L108.48 74.0677L106.848 66.2361C62.1677 74.5394 31.4318 113.767 37.5169 156.123L45.4692 155.155ZM108.48 74.0677L110.113 81.8993C143.89 75.6222 176.011 92.4513 188.347 119.559L195.658 116.405L202.968 113.25C187.251 78.7092 147.313 58.716 106.848 66.2361L108.48 74.0677Z" fill="#2C1D1D"/>
<path d="M94.1105 130.993C79.9306 133.628 70.67 146.027 73.2912 158.6C75.9124 171.174 89.4588 179.334 103.639 176.699C117.819 174.064 127.08 161.665 124.459 149.091C121.838 136.518 108.291 128.357 94.1105 130.993Z" fill="white" stroke="black"/>
<path d="M80.4253 165.492C82.031 173.195 91.2263 177.598 99.8711 175.992C108.516 174.385 114.222 166.838 112.616 159.136C111.011 151.433 102.701 146.491 94.0563 148.098C85.4115 149.704 78.8196 157.789 80.4253 165.492Z" fill="#FF8686"/>
<ellipse cx="11.5675" cy="10.7507" rx="11.5675" ry="10.7507" transform="matrix(-0.983167 0.182712 0.204076 0.978955 106.007 152.987)" fill="black"/>
<path d="M93.3848 163.251C89.6454 163.946 87.2681 167.202 87.9429 170.439C88.6178 173.677 92.1245 175.839 95.864 175.144C99.6035 174.449 101.981 171.193 101.306 167.956C100.631 164.718 97.1243 162.556 93.3848 163.251Z" fill="white" stroke="black"/>
<path d="M94.1105 130.993C79.9306 133.628 70.67 146.027 73.2912 158.6C75.9124 171.174 89.4588 179.334 103.639 176.699C117.819 174.064 127.08 161.665 124.459 149.091C121.838 136.518 108.291 128.357 94.1105 130.993Z" stroke="black"/>
<path d="M155.841 115.25C141.661 117.886 132.4 130.285 135.021 142.858C137.643 155.432 151.189 163.592 165.369 160.957C179.549 158.322 188.81 145.923 186.189 133.349C183.568 120.775 170.021 112.615 155.841 115.25Z" fill="white" stroke="black"/>
<path d="M142.156 149.75C143.761 157.453 152.957 161.856 161.602 160.249C170.246 158.643 175.953 151.096 174.347 143.394C172.741 135.691 164.432 130.749 155.787 132.356C147.142 133.962 140.55 142.047 142.156 149.75Z" fill="#FF8686"/>
<ellipse cx="11.5675" cy="10.7507" rx="11.5675" ry="10.7507" transform="matrix(-0.983167 0.182712 0.204076 0.978955 167.738 137.245)" fill="black"/>
<path d="M155.115 147.509C151.376 148.204 148.999 151.46 149.673 154.697C150.348 157.934 153.855 160.097 157.594 159.402C161.334 158.707 163.711 155.451 163.036 152.214C162.361 148.976 158.855 146.814 155.115 147.509Z" fill="white" stroke="black"/>
<path d="M155.841 115.25C141.661 117.886 132.4 130.285 135.021 142.858C137.643 155.432 151.189 163.592 165.369 160.957C179.549 158.322 188.81 145.923 186.189 133.349C183.568 120.775 170.021 112.615 155.841 115.25Z" stroke="black"/>
<path d="M127.905 188.293C127.588 187.836 126.962 187.712 126.507 188.018C126.052 188.323 125.941 188.942 126.258 189.399L127.082 188.846L127.905 188.293ZM131.398 192.216L131.725 191.281L131.398 192.216ZM138.231 191.145L137.929 190.189L138.231 191.145ZM141.218 189.358L141.752 190.212L141.812 190.176L141.866 190.132L141.218 189.358ZM143.496 186.669L144.397 187.127L144.47 186.982L144.492 186.82L143.496 186.669ZM144.311 184.972C144.198 184.431 143.667 184.075 143.124 184.176C142.581 184.277 142.232 184.797 142.345 185.337L143.328 185.155L144.311 184.972ZM127.082 188.846L126.258 189.399C126.755 190.115 127.604 190.916 128.453 191.578C129.299 192.238 130.274 192.862 131.071 193.151L131.398 192.216L131.725 191.281C131.232 191.102 130.459 190.634 129.675 190.022C128.894 189.413 128.23 188.762 127.905 188.293L127.082 188.846ZM131.398 192.216L131.071 193.151C131.459 193.291 131.958 193.301 132.389 193.284C132.867 193.267 133.443 193.205 134.077 193.109C135.348 192.916 136.917 192.572 138.532 192.101L138.231 191.145L137.929 190.189C136.39 190.639 134.908 190.962 133.734 191.14C133.146 191.23 132.65 191.28 132.272 191.294C131.846 191.31 131.703 191.273 131.725 191.281L131.398 192.216ZM138.231 191.145L138.532 192.101C139.268 191.886 139.814 191.555 140.303 191.214C140.815 190.857 141.184 190.555 141.752 190.212L141.218 189.358L140.683 188.505C140.046 188.89 139.512 189.308 139.127 189.577C138.719 189.861 138.374 190.059 137.929 190.189L138.231 191.145ZM141.218 189.358L141.866 190.132C142.985 189.217 143.677 188.562 144.397 187.127L143.496 186.669L142.595 186.211C142.047 187.304 141.584 187.755 140.57 188.585L141.218 189.358ZM143.496 186.669L144.492 186.82C144.577 186.186 144.414 185.464 144.311 184.972L143.328 185.155L142.345 185.337C142.471 185.945 142.531 186.291 142.501 186.519L143.496 186.669Z" fill="black"/>
<path d="M96.6566 78.2776L130.626 73.916L168.963 86.9556L182.25 99.9019L194.917 117.702L176.771 123.025C176.771 123.025 149.272 104.66 153.262 107.456C157.252 110.252 161.467 125.869 161.467 125.869L129.605 129.84C129.605 129.84 117.058 124.12 114.355 114.687C111.652 105.253 106.501 136.083 106.501 136.083L79.304 144.172C79.304 144.172 69.6527 122.076 71.9541 133.617C74.2555 145.159 67.842 149.336 67.842 149.336L49.7274 155.082L46.2487 138.394L65.4979 100.15L96.6566 78.2776Z" fill="#2C1D1D"/>
<path d="M65.0795 95.9478C65.6682 95.3852 66.5152 94.5887 67.5474 93.649C69.6112 91.7703 72.4218 89.3172 75.4036 87.0291C78.3794 84.7457 81.551 82.6066 84.3323 81.3728C85.7212 80.7567 87.0457 80.3514 88.2193 80.284C89.4013 80.2162 90.477 80.4914 91.2811 81.289C91.5815 81.587 91.7345 81.6005 91.7664 81.598C91.7812 81.5968 91.8865 81.5811 92.0417 81.3065C92.1925 81.0396 92.3337 80.6201 92.4535 80.0383C92.5719 79.4633 92.6641 78.759 92.7304 77.9412C92.9963 74.6618 92.8436 69.7107 92.4836 64.3853C91.7638 53.7377 90.2268 41.7286 89.6359 38.8937C89.362 37.5795 88.43 35.9358 86.9767 34.2657C85.5318 32.6054 83.6045 30.9575 81.3995 29.6289C76.9774 26.9646 71.5342 25.6341 66.6355 27.8891C61.5652 30.2231 57.6354 32.869 54.8899 36.6002C52.1478 40.3268 50.5518 45.1853 50.2424 52.01C50.0899 55.3753 50.9174 59.8623 52.2699 64.7355C53.6194 69.5978 55.4793 74.8017 57.3618 79.5836C59.2437 84.364 61.1449 88.7158 62.5765 91.8727C63.2921 93.4508 63.8901 94.7301 64.3089 95.6143C64.4459 95.9036 64.5637 96.1511 64.6602 96.3524C64.7804 96.2363 64.9202 96.1 65.0795 95.9478Z" fill="#E65656" stroke="black"/>
<path d="M150.04 77.4566C150.046 77.4538 150.058 77.4456 150.076 77.4272C150.117 77.3868 150.174 77.3088 150.235 77.1702C150.359 76.8898 150.465 76.4532 150.539 75.8536C150.613 75.261 150.653 74.538 150.663 73.7015C150.701 70.3478 150.246 65.3114 149.584 59.9099C148.261 49.1162 146.126 36.9712 145.542 34.1735C145.272 32.8779 144.234 30.9115 142.61 28.7314C140.997 26.567 138.848 24.2453 136.422 22.2418C133.993 20.2364 131.307 18.5659 128.621 17.6805C125.941 16.7968 123.289 16.7024 120.881 17.7983C115.762 20.1278 113.014 21.731 111.407 24.3523C109.788 26.9932 109.282 30.7373 108.944 37.525C108.781 40.8048 109.746 44.6893 111.322 48.7027C112.895 52.7079 115.059 56.8003 117.25 60.4819C119.441 64.1617 121.653 67.4218 123.318 69.7624C124.15 70.9323 124.845 71.8718 125.332 72.5183C125.575 72.8414 125.766 73.0916 125.896 73.2604C125.907 73.2744 125.917 73.2885 125.927 73.3014C126.059 73.2922 126.236 73.2791 126.454 73.266C126.967 73.2352 127.705 73.1972 128.607 73.1678C130.409 73.1091 132.869 73.0849 135.5 73.2244C138.128 73.3638 140.941 73.6671 143.441 74.2681C145.926 74.8654 148.174 75.7737 149.606 77.171C149.749 77.3102 149.86 77.3868 149.938 77.426C149.976 77.4447 150.002 77.4528 150.017 77.456L150.036 77.4585L150.04 77.4566Z" fill="#E65656" stroke="black"/>
<g filter="url(#filter0_d_144_264)">
<path d="M45.4692 155.155L46.9602 154.974C41.6716 118.162 68.4318 83.0356 108.786 75.5361L108.48 74.0677L108.174 72.5993C66.4537 80.3526 38.438 116.774 43.9781 155.337L45.4692 155.155ZM108.48 74.0677L108.786 75.5361C145.28 68.7541 180.578 86.8686 194.287 116.996L195.658 116.405L197.028 115.813C182.685 84.292 145.922 65.5841 108.174 72.5993L108.48 74.0677Z" fill="#E65656"/>
</g>
<defs>
<filter id="filter0_d_144_264" x="39.2805" y="71.1299" width="161.748" height="92.2069" filterUnits="userSpaceOnUse" color-interpolation-filters="sRGB">
<feFlood flood-opacity="0" result="BackgroundImageFix"/>
<feColorMatrix in="SourceAlpha" type="matrix" values="0 0 0 0 0 0 0 0 0 0 0 0 0 0 0 0 0 0 127 0" result="hardAlpha"/>
<feOffset dy="4"/>
<feGaussianBlur stdDeviation="2"/>
<feComposite in2="hardAlpha" operator="out"/>
<feColorMatrix type="matrix" values="0 0 0 0 0 0 0 0 0 0 0 0 0 0 0 0 0 0 0.25 0"/>
<feBlend mode="normal" in2="BackgroundImageFix" result="effect1_dropShadow_144_264"/>
<feBlend mode="normal" in="SourceGraphic" in2="effect1_dropShadow_144_264" result="shape"/>
</filter>
</defs>
</svg>
