<svg width="697" height="671" viewBox="0 0 697 671" fill="none" xmlns="http://www.w3.org/2000/svg">
<path d="M436.962 613.866L456.51 610.015C456.51 610.015 466.082 635.685 462.234 639.077C458.386 642.469 452.768 644.077 452.768 644.077C452.768 644.077 449.712 646.473 442.686 642.927C435.66 639.381 436.962 613.866 436.962 613.866Z" fill="black"/>
<path d="M479.624 605.463L499.172 601.612C499.172 601.612 508.745 627.282 504.897 630.674C501.049 634.066 495.431 635.674 495.431 635.674C495.431 635.674 492.374 638.07 485.348 634.524C478.322 630.978 479.624 605.463 479.624 605.463Z" fill="#100E0E"/>
<path d="M498.881 602.154C498.897 602.19 498.915 602.229 498.933 602.27C499.067 602.579 499.255 603.026 499.476 603.575C499.917 604.673 500.482 606.179 500.982 607.808C501.483 609.439 501.913 611.181 502.091 612.755C502.271 614.349 502.182 615.687 501.728 616.573C500.759 618.468 498.979 619.617 497.389 620.295C496.6 620.632 495.871 620.847 495.341 620.977C495.076 621.042 494.862 621.085 494.716 621.112C494.642 621.126 494.586 621.135 494.549 621.141C494.531 621.144 494.516 621.146 494.508 621.147L494.498 621.149L494.427 621.159L494.363 621.188C494.362 621.188 494.36 621.189 494.357 621.19C494.351 621.193 494.341 621.197 494.328 621.203C494.301 621.214 494.259 621.231 494.203 621.252C494.089 621.296 493.917 621.358 493.69 621.43C493.236 621.575 492.559 621.759 491.69 621.915C489.95 622.225 487.435 622.416 484.356 621.928C483.025 621.717 482.054 620.711 481.355 619.144C480.657 617.579 480.278 615.55 480.091 613.51C479.904 611.478 479.912 609.471 479.966 607.969C479.993 607.219 480.031 606.597 480.063 606.163C480.072 606.047 480.081 605.944 480.088 605.856L498.881 602.154Z" fill="white" stroke="black"/>
<path d="M456.064 610.588C456.08 610.624 456.098 610.663 456.116 610.704C456.249 611.013 456.438 611.46 456.658 612.009C457.099 613.107 457.665 614.612 458.165 616.241C458.666 617.873 459.096 619.614 459.274 621.189C459.454 622.783 459.364 624.121 458.911 625.007C457.941 626.902 456.162 628.05 454.572 628.729C453.782 629.066 453.054 629.281 452.524 629.411C452.259 629.476 452.045 629.519 451.898 629.546C451.825 629.56 451.769 629.569 451.732 629.575C451.713 629.578 451.699 629.58 451.69 629.581L451.681 629.583L451.61 629.593L451.546 629.622C451.545 629.622 451.542 629.623 451.539 629.624C451.533 629.626 451.524 629.631 451.511 629.636C451.484 629.647 451.442 629.664 451.385 629.686C451.272 629.729 451.1 629.791 450.873 629.864C450.418 630.008 449.742 630.193 448.872 630.348C447.133 630.658 444.618 630.85 441.538 630.361C440.207 630.15 439.236 629.145 438.537 627.577C437.839 626.012 437.461 623.984 437.274 621.944C437.087 619.912 437.094 617.905 437.149 616.403C437.176 615.653 437.214 615.031 437.246 614.597C437.254 614.48 437.264 614.378 437.271 614.289L456.064 610.588Z" fill="white" stroke="black"/>
<path d="M468.345 504.895L521.889 596.628L418.845 616.924L423.094 513.808L468.345 504.895Z" fill="#DD4646" stroke="#690909"/>
<path d="M490.993 543.671L503.037 564.429L420.32 580.722L421.297 557.076L490.993 543.671Z" fill="#723132" stroke="#690909"/>
<path d="M334.634 522.193C336.798 521.319 340.151 520.954 344.414 520.736C352.878 520.305 364.719 520.469 376.905 518.068C388.999 515.686 400.307 515.466 408.804 517.02C413.054 517.797 416.574 519.014 419.135 520.603C421.696 522.192 423.256 524.126 423.691 526.336C423.913 527.46 423.853 528.414 423.559 529.24C423.265 530.067 422.724 530.802 421.928 531.469C420.32 532.816 417.718 533.847 414.216 534.746C410.727 535.642 406.417 536.392 401.443 537.218C396.477 538.044 390.858 538.945 384.779 540.142C372.728 542.516 359.959 541.379 349.976 538.46C344.984 537 340.709 535.101 337.576 532.989C334.425 530.865 332.513 528.582 332.081 526.388C331.864 525.286 332.012 524.462 332.419 523.819C332.833 523.164 333.56 522.626 334.634 522.193Z" fill="#FFD7BA" stroke="black"/>
<path d="M554.498 478.887C552.164 478.899 548.923 479.832 544.897 481.248C536.901 484.059 526.007 488.7 513.82 491.1C501.726 493.483 491.18 497.567 483.907 502.227C480.269 504.558 477.473 507.019 475.706 509.461C473.939 511.902 473.229 514.283 473.664 516.493C473.885 517.617 474.303 518.477 474.888 519.13C475.474 519.784 476.253 520.259 477.242 520.574C479.241 521.211 482.039 521.178 485.621 520.682C489.189 520.188 493.461 519.247 498.377 518.126C503.286 517.006 508.826 515.709 514.905 514.512C526.956 512.138 538.34 506.244 546.471 499.756C550.536 496.513 553.772 493.134 555.87 489.992C557.98 486.832 558.883 483.995 558.451 481.8C558.234 480.698 557.785 479.992 557.164 479.551C556.532 479.102 555.656 478.881 554.498 478.887Z" fill="#FFD7BA" stroke="black"/>
<path d="M421.526 380.933C462.408 372.881 501.718 397.89 509.369 436.732C517.02 475.574 490.129 513.622 449.247 521.675C408.364 529.727 369.055 504.718 361.404 465.876C353.754 427.034 380.643 388.986 421.526 380.933Z" fill="#FFD7BA" stroke="black"/>
<path d="M360.218 461.771C355.164 424.132 381.772 388.254 421.429 380.443C457.301 373.377 492.003 391.611 505.403 422.351" stroke="#2C1D1D" stroke-width="16"/>
<path d="M407.293 437.401C393.611 440.096 384.605 452.517 387.08 465.083C389.555 477.648 402.599 485.726 416.281 483.032C429.963 480.337 438.97 467.915 436.495 455.349C434.02 442.784 420.975 434.706 407.293 437.401Z" fill="white" stroke="black"/>
<path d="M393.921 471.94C395.435 479.631 404.293 483.989 412.647 482.343C421.001 480.698 426.545 473.13 425.03 465.439C423.515 457.749 415.515 452.848 407.161 454.494C398.808 456.139 392.406 464.25 393.921 471.94Z" fill="#FF8686"/>
<ellipse cx="11.2013" cy="10.7097" rx="11.2013" ry="10.7097" transform="matrix(-0.981149 0.193254 0.193254 0.981149 418.678 459.325)" fill="black"/>
<path d="M406.444 469.642C402.851 470.35 400.533 473.603 401.171 476.846C401.81 480.09 405.189 482.221 408.782 481.513C412.375 480.805 414.693 477.552 414.054 474.309C413.415 471.065 410.037 468.935 406.444 469.642Z" fill="white" stroke="black"/>
<path d="M407.293 437.401C393.611 440.096 384.605 452.517 387.08 465.083C389.555 477.648 402.599 485.726 416.281 483.032C429.963 480.337 438.97 467.915 436.495 455.349C434.02 442.784 420.975 434.706 407.293 437.401Z" stroke="black"/>
<path d="M466.966 421.383C453.284 424.078 444.278 436.5 446.753 449.065C449.228 461.63 462.272 469.709 475.954 467.014C489.636 464.319 498.642 451.897 496.168 439.332C493.693 426.767 480.648 418.688 466.966 421.383Z" fill="white" stroke="black"/>
<path d="M453.593 455.923C455.108 463.613 463.966 467.971 472.32 466.326C480.674 464.681 486.218 457.112 484.703 449.422C483.188 441.731 475.188 436.831 466.834 438.476C458.48 440.122 452.079 448.232 453.593 455.923Z" fill="#FF8686"/>
<ellipse cx="11.2013" cy="10.7097" rx="11.2013" ry="10.7097" transform="matrix(-0.981149 0.193254 0.193254 0.981149 478.35 443.307)" fill="black"/>
<path d="M466.117 453.625C462.524 454.333 460.206 457.585 460.844 460.829C461.483 464.072 464.862 466.203 468.455 465.496C472.048 464.788 474.365 461.535 473.727 458.291C473.088 455.048 469.71 452.918 466.117 453.625Z" fill="white" stroke="black"/>
<path d="M466.966 421.383C453.284 424.078 444.278 436.5 446.753 449.065C449.228 461.63 462.272 469.709 475.954 467.014C489.636 464.319 498.642 451.897 496.168 439.332C493.693 426.767 480.648 418.688 466.966 421.383Z" stroke="black"/>
<path d="M438.859 495.064C439.647 496.245 441.767 497.952 443.011 498.412C443.715 498.673 446.563 498.245 449.613 497.311C450.755 496.961 451.337 496.244 452.505 495.511C453.539 494.634 454.099 494.079 454.717 492.813C454.775 492.382 454.67 491.849 454.562 491.3" stroke="black" stroke-width="2" stroke-linecap="round"/>
<path d="M409.994 384.704L442.812 380.189L479.765 393.044L492.534 405.921L504.682 423.651L487.137 429.054C487.137 429.054 460.673 410.828 464.512 413.604C468.351 416.38 472.348 431.967 472.348 431.967L441.567 436.083C441.567 436.083 429.48 430.424 426.914 421.009C424.348 411.594 419.232 442.429 419.232 442.429L392.936 450.638C392.936 450.638 383.72 428.601 385.889 440.124C388.057 451.648 381.846 455.852 381.846 455.852L364.33 461.678L361.048 445.017L379.81 406.707L409.994 384.704Z" fill="#2C1D1D"/>
<path d="M379.412 402.515C379.983 401.95 380.804 401.149 381.805 400.205C383.806 398.318 386.532 395.854 389.423 393.553C392.306 391.257 395.38 389.103 398.073 387.855C399.419 387.233 400.703 386.819 401.841 386.746C402.99 386.672 404.034 386.945 404.808 387.739C405.098 388.038 405.241 388.044 405.26 388.043C405.265 388.042 405.285 388.041 405.327 388.005C405.373 387.966 405.437 387.891 405.51 387.759C405.656 387.492 405.794 387.073 405.913 386.491C406.03 385.915 406.121 385.21 406.189 384.393C406.461 381.113 406.336 376.165 406.013 370.844C405.367 360.206 403.938 348.21 403.381 345.38C403.122 344.065 402.229 342.426 400.835 340.764C399.447 339.111 397.594 337.473 395.472 336.156C391.215 333.514 385.976 332.216 381.249 334.486C376.345 336.84 372.542 339.5 369.876 343.239C367.212 346.975 365.648 351.838 365.318 358.662C365.155 362.027 365.933 366.509 367.217 371.373C368.497 376.227 370.269 381.419 372.065 386.189C373.86 390.958 375.676 395.3 377.043 398.448C377.727 400.022 378.299 401.298 378.699 402.179C378.826 402.46 378.937 402.7 379.028 402.898C379.139 402.786 379.267 402.658 379.412 402.515Z" fill="#E65656" stroke="black"/>
<path d="M461.532 383.637C461.552 383.626 461.621 383.571 461.713 383.358C461.834 383.077 461.938 382.64 462.013 382.04C462.087 381.447 462.129 380.723 462.142 379.887C462.195 376.535 461.779 371.503 461.164 366.108C459.937 355.328 457.932 343.2 457.382 340.406C457.126 339.11 456.131 337.147 454.573 334.976C453.027 332.82 450.962 330.509 448.629 328.519C446.293 326.526 443.708 324.871 441.122 323.999C438.542 323.13 435.99 323.048 433.668 324.151C428.717 326.502 426.061 328.114 424.5 330.737C422.925 333.383 422.418 337.129 422.061 343.915C421.888 347.196 422.803 351.075 424.307 355.079C425.807 359.075 427.877 363.156 429.976 366.825C432.074 370.493 434.195 373.741 435.791 376.073C436.589 377.238 437.257 378.174 437.723 378.817C437.957 379.139 438.14 379.389 438.265 379.557C438.274 379.569 438.283 379.582 438.291 379.593C438.418 379.584 438.585 379.571 438.79 379.557C439.285 379.524 439.999 379.482 440.869 379.448C442.61 379.381 444.987 379.346 447.527 379.473C450.065 379.6 452.78 379.89 455.193 380.48C457.592 381.066 459.762 381.964 461.139 383.355C461.38 383.599 461.504 383.632 461.532 383.637Z" fill="#E65656" stroke="black"/>
<g filter="url(#filter0_d_144_264)">
<path d="M360.218 461.771C355.164 424.132 381.772 388.254 421.429 380.443C457.301 373.377 492.003 391.611 505.403 422.351" stroke="#E65656" stroke-width="3"/>
</g>
<path d="M456.736 82.7818C421.545 63.3468 378.793 63.8698 338.634 84.2371C327.258 79.171 315.765 77.6343 306.979 77.0622C275.26 79.3794 240.423 93.6165 216.752 115.816C205.674 114.884 177.288 99.3312 158.705 125.869C149.263 139.353 149.712 159.887 140.392 161.157C129.559 162.633 92.3225 151.035 68.7984 188.346C56.1107 208.469 47.8689 222.733 47.8398 230.955C47.8229 235.721 49.3532 241.775 52.8412 246.974C56.3292 252.173 61.4485 258.233 70.3365 258.105C106.37 257.588 120.444 259.174 136.232 268.759C168.545 288.376 219.603 268.389 250.045 283.339C258.329 287.406 265.31 294.952 275.956 297.421C281.732 298.76 288.651 298.164 298.189 294.987C338.408 281.594 372.526 302.585 408.674 281.967C451.445 257.571 494.034 252.489 530.58 240.926C601.151 218.598 654.992 215.303 669.181 193.272C681.059 174.831 688.268 160.13 687.05 147.254L687 146.723C685.552 131.404 684.239 117.514 676.907 112.291C667.747 105.767 651.317 106.034 636.754 98.6803C619.087 89.7598 604.252 57.2124 567.014 71.7014C515.82 91.6211 482.15 112.53 476.923 105.599C473.385 100.907 470.903 90.6057 456.736 82.7818Z" fill="#F26F6F" stroke="black" stroke-width="4" stroke-linecap="round"/>
<path d="M173.934 282.007C173.627 284.306 186.947 307.179 215.41 349.892C230.395 370.915 246.479 390.613 256.335 402.14C266.191 413.668 269.331 416.428 272.101 422.754" stroke="black" stroke-width="4" stroke-linecap="round"/>
<path d="M231.056 279.01C231.061 278.975 232.878 300.381 234.32 320.746C235.702 340.249 250.981 359.593 260.892 386.886C263.738 396.749 263.986 403.908 264.935 409.937C266.345 412.519 269.639 414.129 272.567 419.271" stroke="black" stroke-width="4" stroke-linecap="round"/>
<path d="M577.479 228.097C573.767 263.988 570.054 299.878 567.109 322.031C564.163 344.183 562.097 351.51 560.748 357.419C559.398 363.328 558.827 367.596 558.239 371.994" stroke="black" stroke-width="4" stroke-linecap="round"/>
<path d="M611.545 219.486C612.817 242.466 606.989 278.419 596.491 315.953C590.953 335.752 581.789 343.808 574.582 352.48C570.437 358.797 558.713 366.297 556.838 370.161M556.838 370.161C555.321 371.357 561.42 369.128 556.838 370.161Z" stroke="black" stroke-width="4" stroke-linecap="round"/>
<path d="M267.439 414.346C286.152 449.511 304.865 484.676 315.207 503.77C325.548 522.863 326.952 524.819 328.913 530.056" stroke="black" stroke-width="4" stroke-linecap="round"/>
<path d="M558.126 365.397C557.445 371.268 556.764 377.139 554.184 398.789C551.604 420.439 547.147 457.689 544.837 477.414C542.528 497.139 542.501 498.208 542.474 499.311" stroke="black" stroke-width="4" stroke-linecap="round"/>
<path d="M271.653 418.507C271.891 416.725 272.129 414.943 271.34 401.463C270.551 387.983 268.727 362.86 268.409 344.3C268.091 325.739 269.334 314.503 269.898 308.315C270.462 302.128 270.31 301.33 270.155 300.52C270 299.71 269.848 298.912 269.691 298.09" stroke="black" stroke-width="4" stroke-linecap="round"/>
<path d="M557.41 366.403C556.918 364.264 556.427 362.125 555.609 350.711C554.791 339.296 553.661 318.672 552.681 306.18C550.954 284.169 545.454 279.738 540.013 273.529C534.82 265.232 532.836 260.514 531.339 257.055C530.69 255.005 529.009 244.021 528.676 240.521" stroke="black" stroke-width="4" stroke-linecap="round"/>
<defs>
<filter id="filter0_d_144_264" x="354.103" y="377.426" width="156.675" height="92.5444" filterUnits="userSpaceOnUse" color-interpolation-filters="sRGB">
<feFlood flood-opacity="0" result="BackgroundImageFix"/>
<feColorMatrix in="SourceAlpha" type="matrix" values="0 0 0 0 0 0 0 0 0 0 0 0 0 0 0 0 0 0 127 0" result="hardAlpha"/>
<feOffset dy="4"/>
<feGaussianBlur stdDeviation="2"/>
<feComposite in2="hardAlpha" operator="out"/>
<feColorMatrix type="matrix" values="0 0 0 0 0 0 0 0 0 0 0 0 0 0 0 0 0 0 0.25 0"/>
<feBlend mode="normal" in2="BackgroundImageFix" result="effect1_dropShadow_144_264"/>
<feBlend mode="normal" in="SourceGraphic" in2="effect1_dropShadow_144_264" result="shape"/>
</filter>
</defs>
</svg>
