<svg width="1311" height="1190" viewBox="0 0 1311 1190" fill="none" xmlns="http://www.w3.org/2000/svg">
<g filter="url(#filter0_d_134_13)">
<path d="M1092.96 171.561C1092.96 171.561 968.848 218.586 852.559 202.238C736.269 185.89 617.824 283.019 617.824 283.019L693.738 953.09C837.692 816.099 1074.3 950.767 1228.87 866.817L1092.96 171.561Z" fill="#E3C075"/>
<path d="M852.221 204.234C794.656 196.141 736.413 216.135 692.416 238.297C670.442 249.366 652.083 260.946 639.219 269.757C632.788 274.162 627.735 277.873 624.292 280.479C622.571 281.782 621.252 282.809 620.367 283.508C620.205 283.636 620.058 283.753 619.925 283.859L695.277 948.962C767.619 882.453 862.372 882.085 957.511 888.052C1005.84 891.082 1054.25 895.753 1100.3 894.435C1145.78 893.134 1188.71 885.988 1226.63 865.772L1091.45 174.232C1090.55 174.552 1089.4 174.965 1087.98 175.454C1084.34 176.715 1079.02 178.496 1072.27 180.58C1058.77 184.747 1039.56 190.131 1016.71 195.002C971.036 204.738 910.682 212.452 852.221 204.234Z" stroke="#402C2C" stroke-width="4"/>
</g>
<g filter="url(#filter1_d_134_13)">
<path d="M83.5689 365.438C83.5689 365.438 214.778 363.879 319.401 305.494C424.025 247.109 565.085 294.859 565.085 294.859L696.71 954.329C519.527 878.445 337.403 1092.79 166.296 1070.81L83.5689 365.438Z" fill="#E3C075"/>
<path d="M320.329 307.244C372.116 278.344 433.057 275.657 481.234 280.281C505.294 282.59 526.105 286.715 540.898 290.264C548.292 292.037 554.18 293.666 558.214 294.85C560.23 295.441 561.784 295.921 562.831 296.253C563.022 296.313 563.196 296.37 563.353 296.421L694.003 951.008C605.668 915.079 516.269 949.754 428.432 990.537C383.811 1011.25 339.61 1033.55 295.818 1049.33C252.572 1064.91 209.952 1074.04 168.097 1069.01L85.8107 367.39C86.7464 367.363 87.9611 367.323 89.4372 367.262C93.2501 367.105 98.8074 366.815 105.8 366.284C119.784 365.222 139.515 363.196 162.524 359.34C208.519 351.634 267.731 336.596 320.329 307.244Z" stroke="#402C2C" stroke-width="4"/>
</g>
<g filter="url(#filter2_d_134_13)">
<path d="M1078.44 154.664C1078.44 154.664 954.326 201.689 838.037 185.341C721.748 168.993 603.302 266.122 603.302 266.122L697.114 952.525C841.068 815.533 1059.77 933.87 1214.35 849.92L1078.44 154.664Z" fill="#E3C075"/>
<path d="M837.7 187.337C780.134 179.244 721.891 199.238 677.894 221.401C655.921 232.47 637.561 244.05 624.697 252.861C618.267 257.265 613.213 260.976 609.771 263.582C608.049 264.885 606.731 265.912 605.845 266.611C605.693 266.731 605.554 266.843 605.428 266.943L698.573 948.465C770.76 881.832 861.051 877.376 951.858 879.317C997.951 880.303 1044.13 882.938 1088.5 880.093C1132.32 877.284 1174.18 869.135 1212.11 848.876L1076.92 157.335C1076.03 157.655 1074.87 158.068 1073.46 158.557C1069.82 159.818 1064.5 161.599 1057.75 163.683C1044.25 167.851 1025.04 173.234 1002.19 178.105C956.514 187.842 896.16 195.555 837.7 187.337Z" stroke="#402C2C" stroke-width="4"/>
</g>
<g filter="url(#filter3_d_134_13)">
<path d="M92.1297 344.148C92.1297 344.148 223.339 342.589 327.962 284.204C432.586 225.82 573.646 273.569 573.646 273.569L693.357 955.043C516.174 879.159 345.964 1071.5 174.857 1049.52L92.1297 344.148Z" fill="#E3C075"/>
<path d="M328.89 285.954C380.677 257.054 441.618 254.368 489.794 258.991C513.855 261.3 534.666 265.426 549.458 268.974C556.853 270.748 562.741 272.376 566.774 273.56C568.791 274.151 570.345 274.631 571.391 274.963C571.571 275.02 571.736 275.074 571.886 275.122L690.746 951.757C602.521 915.654 516.087 944.828 431.111 980.217C387.975 998.182 345.264 1017.73 302.584 1031.45C260.443 1045 218.536 1052.79 176.657 1047.72L94.3715 346.101C95.3071 346.073 96.5219 346.034 97.998 345.973C101.811 345.815 107.368 345.525 114.361 344.994C128.344 343.932 148.076 341.906 171.085 338.051C217.079 330.344 276.292 315.306 328.89 285.954Z" stroke="#402C2C" stroke-width="4"/>
</g>
<g filter="url(#filter4_di_134_13)">
<path d="M1057.97 139.162C1057.97 139.162 933.858 186.188 817.569 169.84C701.28 153.492 582.835 250.621 582.835 250.621L693.487 951.802C837.44 814.81 1039.31 918.369 1193.88 834.418L1057.97 139.162Z" fill="#CCAB66"/>
<path d="M817.232 171.836C759.666 163.743 701.423 183.736 657.426 205.899C635.453 216.968 617.093 228.548 604.229 237.359C597.799 241.764 592.745 245.475 589.303 248.081C587.582 249.384 586.263 250.41 585.378 251.11C585.234 251.223 585.103 251.328 584.983 251.424L694.876 947.803C766.92 881.068 853.008 872.912 939.73 871.205C1027.26 869.482 1115.21 874.268 1191.64 833.375L1056.46 141.834C1055.56 142.154 1054.41 142.567 1052.99 143.056C1049.35 144.317 1044.03 146.098 1037.28 148.182C1023.78 152.349 1004.57 157.732 981.723 162.603C936.046 172.34 875.693 180.054 817.232 171.836Z" stroke="#402C2C" stroke-width="4"/>
</g>
<g filter="url(#filter5_di_134_13)">
<path d="M106.717 321.977C106.717 321.977 237.926 320.418 342.549 262.033C447.173 203.648 588.233 251.397 588.233 251.397L696.556 953.021C519.373 877.137 360.551 1049.33 189.444 1027.35L106.717 321.977Z" fill="#CCAB66"/>
<path d="M343.477 263.782C395.264 234.883 456.205 232.196 504.381 236.819C528.442 239.128 549.253 243.254 564.045 246.802C571.44 248.576 577.328 250.205 581.362 251.388C583.378 251.98 584.931 252.46 585.977 252.791C586.147 252.845 586.303 252.896 586.446 252.942L694.028 949.767C605.908 913.515 522.313 937.649 440.08 968.091C357.074 998.819 275.654 1035.83 191.245 1025.55L108.959 323.929C109.894 323.902 111.109 323.862 112.585 323.801C116.398 323.643 121.955 323.353 128.948 322.822C142.931 321.76 162.663 319.735 185.672 315.879C231.666 308.172 290.879 293.134 343.477 263.782Z" stroke="#402C2C" stroke-width="4"/>
</g>
<defs>
<filter id="filter0_d_134_13" x="616.824" y="171.561" width="619.044" height="789.53" filterUnits="userSpaceOnUse" color-interpolation-filters="sRGB">
<feFlood flood-opacity="0" result="BackgroundImageFix"/>
<feColorMatrix in="SourceAlpha" type="matrix" values="0 0 0 0 0 0 0 0 0 0 0 0 0 0 0 0 0 0 127 0" result="hardAlpha"/>
<feOffset dx="3" dy="4"/>
<feGaussianBlur stdDeviation="2"/>
<feComposite in2="hardAlpha" operator="out"/>
<feColorMatrix type="matrix" values="0 0 0 0 0 0 0 0 0 0 0 0 0 0 0 0 0 0 0.25 0"/>
<feBlend mode="normal" in2="BackgroundImageFix" result="effect1_dropShadow_134_13"/>
<feBlend mode="normal" in="SourceGraphic" in2="effect1_dropShadow_134_13" result="shape"/>
</filter>
<filter id="filter1_d_134_13" x="82.5689" y="276.469" width="621.141" height="803.936" filterUnits="userSpaceOnUse" color-interpolation-filters="sRGB">
<feFlood flood-opacity="0" result="BackgroundImageFix"/>
<feColorMatrix in="SourceAlpha" type="matrix" values="0 0 0 0 0 0 0 0 0 0 0 0 0 0 0 0 0 0 127 0" result="hardAlpha"/>
<feOffset dx="3" dy="4"/>
<feGaussianBlur stdDeviation="2"/>
<feComposite in2="hardAlpha" operator="out"/>
<feColorMatrix type="matrix" values="0 0 0 0 0 0 0 0 0 0 0 0 0 0 0 0 0 0 0.25 0"/>
<feBlend mode="normal" in2="BackgroundImageFix" result="effect1_dropShadow_134_13"/>
<feBlend mode="normal" in="SourceGraphic" in2="effect1_dropShadow_134_13" result="shape"/>
</filter>
<filter id="filter2_d_134_13" x="603.302" y="154.664" width="620.044" height="805.861" filterUnits="userSpaceOnUse" color-interpolation-filters="sRGB">
<feFlood flood-opacity="0" result="BackgroundImageFix"/>
<feColorMatrix in="SourceAlpha" type="matrix" values="0 0 0 0 0 0 0 0 0 0 0 0 0 0 0 0 0 0 127 0" result="hardAlpha"/>
<feOffset dx="5" dy="4"/>
<feGaussianBlur stdDeviation="2"/>
<feComposite in2="hardAlpha" operator="out"/>
<feColorMatrix type="matrix" values="0 0 0 0 0 0 0 0 0 0 0 0 0 0 0 0 0 0 0.25 0"/>
<feBlend mode="normal" in2="BackgroundImageFix" result="effect1_dropShadow_134_13"/>
<feBlend mode="normal" in="SourceGraphic" in2="effect1_dropShadow_134_13" result="shape"/>
</filter>
<filter id="filter3_d_134_13" x="92.1297" y="255.179" width="610.228" height="804.107" filterUnits="userSpaceOnUse" color-interpolation-filters="sRGB">
<feFlood flood-opacity="0" result="BackgroundImageFix"/>
<feColorMatrix in="SourceAlpha" type="matrix" values="0 0 0 0 0 0 0 0 0 0 0 0 0 0 0 0 0 0 127 0" result="hardAlpha"/>
<feOffset dx="5" dy="4"/>
<feGaussianBlur stdDeviation="2"/>
<feComposite in2="hardAlpha" operator="out"/>
<feColorMatrix type="matrix" values="0 0 0 0 0 0 0 0 0 0 0 0 0 0 0 0 0 0 0.25 0"/>
<feBlend mode="normal" in2="BackgroundImageFix" result="effect1_dropShadow_134_13"/>
<feBlend mode="normal" in="SourceGraphic" in2="effect1_dropShadow_134_13" result="shape"/>
</filter>
<filter id="filter4_di_134_13" x="581.835" y="139.162" width="619.044" height="820.639" filterUnits="userSpaceOnUse" color-interpolation-filters="sRGB">
<feFlood flood-opacity="0" result="BackgroundImageFix"/>
<feColorMatrix in="SourceAlpha" type="matrix" values="0 0 0 0 0 0 0 0 0 0 0 0 0 0 0 0 0 0 127 0" result="hardAlpha"/>
<feOffset dx="3" dy="4"/>
<feGaussianBlur stdDeviation="2"/>
<feComposite in2="hardAlpha" operator="out"/>
<feColorMatrix type="matrix" values="0 0 0 0 0 0 0 0 0 0 0 0 0 0 0 0 0 0 0.25 0"/>
<feBlend mode="normal" in2="BackgroundImageFix" result="effect1_dropShadow_134_13"/>
<feBlend mode="normal" in="SourceGraphic" in2="effect1_dropShadow_134_13" result="shape"/>
<feColorMatrix in="SourceAlpha" type="matrix" values="0 0 0 0 0 0 0 0 0 0 0 0 0 0 0 0 0 0 127 0" result="hardAlpha"/>
<feOffset dx="4" dy="4"/>
<feGaussianBlur stdDeviation="2"/>
<feComposite in2="hardAlpha" operator="arithmetic" k2="-1" k3="1"/>
<feColorMatrix type="matrix" values="0 0 0 0 0 0 0 0 0 0 0 0 0 0 0 0 0 0 0.25 0"/>
<feBlend mode="normal" in2="shape" result="effect2_innerShadow_134_13"/>
</filter>
<filter id="filter5_di_134_13" x="105.717" y="233.008" width="597.839" height="804.3" filterUnits="userSpaceOnUse" color-interpolation-filters="sRGB">
<feFlood flood-opacity="0" result="BackgroundImageFix"/>
<feColorMatrix in="SourceAlpha" type="matrix" values="0 0 0 0 0 0 0 0 0 0 0 0 0 0 0 0 0 0 127 0" result="hardAlpha"/>
<feOffset dx="3" dy="4"/>
<feGaussianBlur stdDeviation="2"/>
<feComposite in2="hardAlpha" operator="out"/>
<feColorMatrix type="matrix" values="0 0 0 0 0 0 0 0 0 0 0 0 0 0 0 0 0 0 0.25 0"/>
<feBlend mode="normal" in2="BackgroundImageFix" result="effect1_dropShadow_134_13"/>
<feBlend mode="normal" in="SourceGraphic" in2="effect1_dropShadow_134_13" result="shape"/>
<feColorMatrix in="SourceAlpha" type="matrix" values="0 0 0 0 0 0 0 0 0 0 0 0 0 0 0 0 0 0 127 0" result="hardAlpha"/>
<feOffset dx="4" dy="4"/>
<feGaussianBlur stdDeviation="2"/>
<feComposite in2="hardAlpha" operator="arithmetic" k2="-1" k3="1"/>
<feColorMatrix type="matrix" values="0 0 0 0 0 0 0 0 0 0 0 0 0 0 0 0 0 0 0.25 0"/>
<feBlend mode="normal" in2="shape" result="effect2_innerShadow_134_13"/>
</filter>
</defs>
</svg>
