<svg width="520" height="305" viewBox="0 0 520 305" fill="none" xmlns="http://www.w3.org/2000/svg">
<path d="M233.89 141.98C293.494 138.35 354.314 136.546 402.913 139.256C427.229 140.612 448.3 143.088 464.559 146.964C472.685 148.901 479.472 151.156 484.805 153.719C490.175 156.299 493.772 159.051 495.875 161.819C516.729 189.278 516.892 221.279 511.523 246.988C508.847 259.805 504.825 270.886 501.467 278.766C499.79 282.7 498.286 285.82 497.209 287.943C497.035 288.287 496.869 288.603 496.718 288.894C496.291 288.934 495.814 288.982 495.288 289.031C492.619 289.282 488.689 289.642 483.66 290.079C473.601 290.953 459.144 292.132 441.565 293.352C406.402 295.791 358.78 298.391 308.907 299.035C259.006 299.68 206.987 298.365 162.984 293.012C140.981 290.335 121.103 286.661 104.553 281.767C87.9224 276.848 75.0617 270.811 66.7422 263.648C30.8896 232.78 15.7058 206.331 9.38184 187.979C6.21545 178.791 5.24629 171.567 5.04395 166.745C4.98723 165.394 4.99184 164.229 5.02441 163.26C5.38335 163.215 5.76628 163.168 6.17188 163.118C9.50896 162.707 14.4122 162.113 20.6699 161.376C33.1865 159.902 51.1214 157.86 72.7822 155.591C116.11 151.052 174.32 145.609 233.89 141.98Z" fill="#BACCE3" stroke="#811616" stroke-width="10"/>
<path d="M43.3436 5L104.63 151.877L5.30066 163.353L9.96375 5H43.3436Z" fill="#FFD21D" stroke="#811616" stroke-width="10"/>
<path d="M59.2822 247.499L508.022 247.499L496.141 284.97L362.517 292.693L198.556 295.011L161.999 291.261L129.55 279.731L111.132 275.81L101.982 273.077L75.1563 265.978L59.2822 247.499Z" fill="#E68383"/>
<path d="M234.022 139.288C293.627 135.658 354.446 133.854 403.046 136.563C427.362 137.919 448.433 140.396 464.691 144.271C472.818 146.209 479.605 148.464 484.937 151.026C490.307 153.607 493.905 156.359 496.008 159.127C516.862 186.585 517.025 218.586 511.656 244.296C508.98 257.113 504.957 268.194 501.599 276.073C499.923 280.007 498.419 283.128 497.342 285.251C497.167 285.595 497.001 285.911 496.85 286.201C496.424 286.242 495.947 286.289 495.421 286.339C492.751 286.59 488.822 286.95 483.793 287.387C473.734 288.261 459.276 289.44 441.698 290.659C406.535 293.099 358.913 295.698 309.04 296.343C259.139 296.988 207.12 295.673 163.117 290.319C141.114 287.642 121.235 283.969 104.685 279.074C88.0551 274.156 75.1944 268.119 66.8749 260.956C31.0223 230.088 15.8385 203.638 9.51453 185.287C6.34814 176.099 5.37898 168.874 5.17664 164.053C5.11992 162.701 5.12453 161.536 5.1571 160.567C5.51604 160.523 5.89897 160.476 6.30457 160.426C9.64166 160.015 14.5449 159.421 20.8026 158.684C33.3192 157.209 51.2541 155.167 72.9149 152.898C116.242 148.36 174.452 142.916 234.022 139.288Z" stroke="#811616" stroke-width="10"/>
<line x1="51.8025" y1="245.978" x2="508.032" y2="246.863" stroke="#811616" stroke-width="10"/>
<path d="M162.756 83.2461L385.252 294.084L270.64 298.85L117.995 83.2461H162.756Z" fill="#E68383" stroke="#811616" stroke-width="10"/>
<rect x="430.444" y="185.61" width="30.1981" height="26.2656" rx="4" fill="white" stroke="#811616" stroke-width="8"/>
<rect x="81.8858" y="185.61" width="30.1981" height="26.2656" rx="4" fill="white" stroke="#811616" stroke-width="8"/>
<rect x="137.852" y="196.355" width="6.4021" height="4.77637" fill="white" stroke="#811616" stroke-width="4.77637"/>
<rect x="174.634" y="196.355" width="6.4021" height="4.77637" fill="white" stroke="#811616" stroke-width="4.77637"/>
<rect x="310.114" y="196.355" width="6.4021" height="4.77637" fill="white" stroke="#811616" stroke-width="4.77637"/>
<path d="M348.894 197.967V199.52H345.715V197.967H348.894Z" fill="white" stroke="#811616" stroke-width="8"/>
<rect x="378.093" y="196.355" width="6.4021" height="4.77637" fill="white" stroke="#811616" stroke-width="4.77637"/>
</svg>
